<?xml version="1.0" encoding="UTF-8" standalone="no"?><!-- Generator: Gravit.io --><svg xmlns="http://www.w3.org/2000/svg" xmlns:xlink="http://www.w3.org/1999/xlink" style="isolation:isolate" viewBox="0 0 279 96" width="279pt" height="96pt"><defs><clipPath id="_clipPath_wE4ZcUS00TWmK3VRGDbisxkpl00z9hgj"><rect width="279" height="96"/></clipPath></defs><g clip-path="url(#_clipPath_wE4ZcUS00TWmK3VRGDbisxkpl00z9hgj)"><path d=" M 264.78 70.39 L 213.83 75.39 L 85.28 75.39 L 31.69 72.27 L 32.72 57.51 L 44.16 41.78 L 71.87 43.03 L 85.64 63.77 L 213.83 63.59 L 227.24 42.86 L 255.31 44.11 L 265.14 58.76 L 264.78 70.39 Z " fill="rgb(71,51,54)"/><g><path d=" M 1.61 23.01 L 6.61 55.01 L 26.97 56.96 L 32.72 57.51 L 44.16 41.78 L 71.87 43.03 L 85.64 63.77 L 85.28 75.39 L 213.83 75.39 L 213.83 63.59 L 227.24 42.86 L 255.31 44.11 L 265.14 58.76 L 264.78 70.39 L 274.98 68.6 L 278.73 63.24 L 278.73 57.72 L 277.28 57.68 L 278.73 41.25 L 268.63 37.79 L 164.84 2.27 L 1.61 23.01 Z " fill="rgb(206,145,145)"/><path d=" M 85.09 75.58 C 85.04 75.53 85.01 75.46 85.01 75.39 L 85.36 63.86 L 71.72 43.29 L 44.29 42.05 L 32.93 57.67 C 32.87 57.75 32.78 57.78 32.69 57.78 L 6.58 55.28 C 6.46 55.27 6.36 55.18 6.34 55.05 L 1.34 23.05 C 1.33 22.98 1.35 22.91 1.39 22.85 C 1.43 22.79 1.5 22.75 1.57 22.74 L 164.81 2 C 164.85 1.99 164.89 2 164.93 2.01 L 278.82 40.99 C 278.94 41.03 279.01 41.14 279 41.27 L 277.57 57.42 L 278.74 57.45 C 278.89 57.45 279 57.57 279 57.72 L 279 63.24 C 279 63.3 278.98 63.35 278.95 63.39 L 275.2 68.75 C 275.16 68.81 275.1 68.85 275.03 68.86 L 264.84 70.65 C 264.76 70.66 264.68 70.64 264.62 70.59 C 264.56 70.54 264.53 70.46 264.53 70.38 L 264.89 58.84 L 255.18 44.36 L 227.4 43.12 L 214.1 63.67 L 214.1 75.39 C 214.1 75.54 213.98 75.66 213.83 75.66 L 85.28 75.66 C 85.21 75.66 85.14 75.63 85.09 75.58 Z  M 213.56 63.59 C 213.56 63.54 213.57 63.49 213.6 63.44 L 227.01 42.7 C 227.06 42.62 227.14 42.58 227.25 42.58 L 255.32 43.83 C 255.41 43.83 255.48 43.88 255.53 43.95 L 265.36 58.61 C 265.39 58.66 265.41 58.71 265.41 58.77 L 265.06 70.06 L 274.82 68.35 L 278.46 63.15 L 278.46 57.98 L 277.27 57.95 C 277.2 57.95 277.13 57.92 277.08 57.86 C 277.03 57.8 277.01 57.73 277.01 57.66 L 278.44 41.43 L 268.54 38.04 L 164.81 2.54 L 1.92 23.24 L 6.85 54.76 L 32.6 57.23 L 43.95 41.62 C 44 41.55 44.09 41.5 44.18 41.51 L 71.89 42.76 C 71.98 42.76 72.05 42.81 72.1 42.88 L 85.86 63.62 C 85.89 63.67 85.91 63.72 85.9 63.78 L 85.55 75.12 L 213.55 75.12 L 213.55 63.59 L 213.56 63.59 Z " fill="rgb(63,26,26)"/></g><g><path d=" M 26.97 56.96 L 32.72 57.51 L 44.16 41.78 L 71.87 43.03 L 85.64 63.77 L 85.28 75.39 L 213.83 75.39 L 213.83 63.59 L 227.24 42.86 L 255.31 44.11 L 265.14 58.76 L 264.78 70.39 L 274.98 68.6 L 278.73 63.24 L 278.73 57.72 L 277.28 57.68 L 268.63 57.68 L 257.81 40.62 L 225.18 38.83 L 209.45 63.06 L 208.2 68.6 L 89.75 68.6 L 89.75 61 L 74.46 38.83 L 41.57 37.76 L 26.97 56.96 Z " fill="rgb(96,55,55)"/><path d=" M 85.37 63.85 L 71.72 43.29 L 44.29 42.05 L 32.84 57.8 L 26.46 57.19 L 41.43 37.49 L 74.46 38.57 L 74.6 38.57 L 90.01 60.92 L 90.01 68.34 L 207.97 68.34 L 209.18 63 L 225.03 38.56 L 257.81 40.35 L 257.95 40.36 L 268.76 57.41 L 277.27 57.41 L 278.98 57.45 L 278.98 63.32 L 275.11 68.84 L 264.48 70.7 L 264.85 58.83 L 255.14 44.35 L 227.36 43.11 L 214.1 63.67 L 214.1 75.66 L 85.01 75.66 L 85.37 63.85 Z  M 213.56 63.51 L 227.1 42.58 L 255.46 43.84 L 265.37 58.61 L 265.42 58.68 L 265.07 70.06 L 274.83 68.35 L 278.47 63.15 L 278.47 57.98 L 277.28 57.95 L 268.49 57.95 L 257.67 40.88 L 225.34 39.11 L 209.7 63.16 L 208.41 68.87 L 89.48 68.87 L 89.48 61.08 L 74.32 39.1 L 41.7 38.03 L 27.47 56.74 L 32.59 57.23 L 44.03 41.51 L 72.02 42.77 L 85.86 63.63 L 85.91 63.7 L 85.56 75.13 L 213.56 75.13 L 213.56 63.51 Z " fill="rgb(63,26,26)"/></g><g><path d=" M 32.72 57.51 L 32.72 60.13 L 10.23 58.12 L 10.23 55.36 L 32.72 57.51 Z " fill="rgb(63,26,26)"/><path d=" M 9.96 58.36 L 9.96 55.06 L 32.74 57.25 L 32.98 57.27 L 32.98 60.42 L 9.96 58.36 Z  M 10.5 55.65 L 10.5 57.87 L 32.45 59.83 L 32.45 57.75 L 10.5 55.65 Z " fill="rgb(63,26,26)"/></g><path d=" M 1.61 23.01 L 268.63 37.79 L 164.84 2.27 L 1.61 23.01 Z " fill="rgb(234,190,201)"/><g><path d=" M 32.72 60.13 L 31.69 72.27 L 5.34 63.48 L 5.34 57.74 L 10.23 58.12 L 32.72 60.13 Z " fill="rgb(119,52,50)"/><path d=" M 5.07 63.68 L 5.07 57.46 L 10.26 57.86 L 33.01 59.89 L 31.93 72.63 L 5.07 63.68 Z  M 10.21 58.39 L 5.6 58.04 L 5.6 63.3 L 31.44 71.91 L 32.42 60.38 L 10.21 58.39 Z " fill="rgb(63,26,26)"/></g><path d=" M 35.69 45.74 L 28.06 45.35 C 27.92 45.34 27.81 45.22 27.81 45.08 L 27.81 37.21 C 27.81 37.14 27.84 37.07 27.89 37.02 C 27.94 36.97 28.02 36.94 28.09 36.95 L 41.59 37.49 C 41.69 37.49 41.78 37.55 41.82 37.64 C 41.86 37.73 41.85 37.84 41.79 37.92 L 35.92 45.63 C 35.87 45.7 35.79 45.74 35.71 45.74 C 35.7 45.74 35.69 45.74 35.69 45.74 Z  M 28.34 37.5 L 28.34 44.83 L 35.58 45.2 L 41.05 38.01 L 28.34 37.5 Z " fill="rgb(63,26,26)"/><g><path d=" M 103.7 22.52 L 108.66 22.83 L 110.82 22.97 L 144.33 25.12 L 153.09 25.68 L 158.2 26.01 L 192.2 28.19 L 200.45 28.72 L 211.86 29.45 L 239.67 31.23 L 208.99 20.5 L 197.08 16.33 L 164.17 4.82 L 154.01 6.14 L 147.97 6.92 L 108.66 12.04 L 104.37 12.59 L 103.7 22.52 Z " fill="rgb(196,128,145)"/><path d=" M 239.65 31.5 L 103.68 22.78 C 103.61 22.78 103.54 22.74 103.5 22.69 C 103.46 22.64 103.43 22.57 103.43 22.5 L 104.1 12.58 C 104.11 12.45 104.21 12.35 104.33 12.33 L 164.14 4.55 C 164.18 4.54 164.22 4.55 164.26 4.56 L 239.75 30.98 C 239.88 31.02 239.95 31.16 239.92 31.29 C 239.89 31.42 239.78 31.5 239.66 31.5 C 239.66 31.5 239.66 31.5 239.65 31.5 Z  M 104.62 12.83 L 103.98 22.26 L 237.73 30.83 L 164.14 5.09 L 104.62 12.83 Z " fill="rgb(63,26,26)"/></g><path d=" M 209.72 63.06 L 210.7 34.72 C 210.7 34.68 210.69 34.64 210.68 34.61 L 208.45 29.11 L 207.95 29.31 L 210.16 34.76 L 209.18 63.04 L 209.72 63.06 Z " fill="rgb(63,26,26)"/><path d=" M 156.8 68.61 L 157.34 68.6 L 156.8 31.23 C 156.8 31.21 156.8 31.19 156.79 31.17 L 155.36 25.75 L 154.84 25.89 L 156.26 31.28 L 156.8 68.61 Z " fill="rgb(63,26,26)"/><path d=" M 104.05 68.61 L 104.59 68.59 L 103.07 28.45 L 103.96 22.56 L 103.43 22.48 L 102.54 28.42 L 104.05 68.61 Z " fill="rgb(63,26,26)"/><g><path d=" M 103.7 22.52 L 108.66 22.83 L 110.82 22.97 L 110 15.01 L 142.99 10.72 L 144.33 25.12 L 153.09 25.68 L 150.76 9.78 L 160.15 8.7 L 189.52 18.72 L 192.2 28.19 L 200.45 28.72 L 198.35 21.01 L 219.55 28.64 L 211.42 28.07 L 211.86 29.45 L 239.67 31.23 L 208.99 20.5 L 197.08 16.33 L 164.17 4.82 L 154.01 6.14 L 147.97 6.92 L 108.66 12.04 L 104.37 12.59 L 103.7 22.52 Z " fill="rgb(96,55,55)"/><path d=" M 211.66 29.71 L 211.04 27.78 L 217.64 28.24 L 198.75 21.44 L 200.81 29.01 L 192 28.44 L 189.3 18.93 L 160.12 8.98 L 151.07 10.01 L 153.4 25.97 L 144.08 25.37 L 142.74 11.02 L 110.29 15.24 L 111.12 23.26 L 103.41 22.77 L 104.11 12.36 L 164.13 4.55 L 164.19 4.54 L 241.59 31.62 L 211.66 29.71 Z  M 104.62 12.83 L 103.98 22.26 L 110.52 22.68 L 109.7 14.77 L 143.22 10.41 L 144.57 24.86 L 152.77 25.39 L 150.46 9.54 L 160.12 8.44 L 160.18 8.43 L 189.6 18.46 L 189.73 18.51 L 192.4 27.93 L 200.09 28.42 L 197.96 20.58 L 221.46 29.04 L 211.79 28.36 L 212.05 29.19 L 237.73 30.83 L 164.14 5.09 L 104.62 12.83 Z " fill="rgb(63,26,26)"/></g><g><path d=" M 147.97 6.92 L 149.75 25.47 L 158.2 26.01 L 154.01 6.14 L 147.97 6.92 Z " fill="rgb(118,58,50)"/><path d=" M 149.51 25.72 L 147.68 6.69 L 154.22 5.84 L 158.54 26.3 L 149.51 25.72 Z  M 148.26 7.16 L 150 25.21 L 157.87 25.71 L 153.8 6.43 L 148.26 7.16 Z " fill="rgb(63,26,26)"/></g><g><path d=" M 103.7 22.52 L 108.66 22.83 L 108.66 12.04 L 104.37 12.59 L 103.7 22.52 Z " fill="rgb(118,58,50)"/><path d=" M 103.41 22.77 L 104.11 12.36 L 108.92 11.73 L 108.92 23.12 L 103.41 22.77 Z  M 104.62 12.83 L 103.98 22.26 L 108.39 22.54 L 108.39 12.34 L 104.62 12.83 Z " fill="rgb(63,26,26)"/></g><path d=" M 268.36 57.68 L 268.36 37.79 C 268.36 37.7 268.4 37.62 268.47 37.57 C 268.54 37.52 268.63 37.51 268.71 37.53 L 278.81 40.98 C 278.93 41.02 279 41.13 278.99 41.26 L 277.54 57.69 C 277.53 57.83 277.41 57.93 277.27 57.93 L 268.62 57.93 C 268.48 57.95 268.36 57.83 268.36 57.68 Z  M 278.44 41.43 L 268.89 38.17 L 268.89 57.42 L 277.02 57.42 L 278.44 41.43 Z " fill="rgb(63,26,26)"/><g><path d=" M 278.5 43.88 L 268.63 41.29 L 268.63 37.79 L 278.73 41.25 L 278.5 43.88 Z " fill="rgb(242,223,211)"/><path d=" M 278.43 44.14 L 268.56 41.55 C 268.44 41.52 268.36 41.41 268.36 41.29 L 268.36 37.79 C 268.36 37.7 268.4 37.62 268.47 37.57 C 268.54 37.52 268.63 37.51 268.71 37.53 L 278.81 40.98 C 278.93 41.02 279 41.13 278.99 41.26 L 278.76 43.89 C 278.75 43.97 278.71 44.04 278.65 44.09 C 278.6 44.12 278.55 44.14 278.5 44.14 C 278.47 44.15 278.45 44.15 278.43 44.14 Z  M 268.9 38.17 L 268.9 41.09 L 278.26 43.55 L 278.45 41.44 L 268.9 38.17 Z " fill="rgb(63,26,26)"/></g><path d=" M 85.09 75.58 C 85.04 75.53 85.01 75.46 85.01 75.39 L 85.36 63.77 C 85.36 63.68 85.41 63.6 85.48 63.56 L 89.59 60.79 C 89.64 60.76 89.69 60.75 89.74 60.74 L 209.47 62.8 L 213.85 63.34 C 213.98 63.36 214.09 63.47 214.09 63.61 L 214.09 75.41 C 214.09 75.56 213.97 75.68 213.82 75.68 L 85.28 75.68 C 85.21 75.66 85.14 75.63 85.09 75.58 Z  M 213.56 63.83 L 209.45 63.32 L 89.83 61.27 L 85.9 63.92 L 85.56 75.12 L 213.56 75.12 L 213.56 63.83 Z " fill="rgb(63,26,26)"/><path d=" M 171.25 35.92 L 159.83 35.21 L 159.83 35.21 C 159.67 35.2 159.52 35.13 159.42 35.01 C 159.31 34.89 159.26 34.73 159.27 34.57 L 159.35 33.32 C 159.37 32.99 159.66 32.74 159.99 32.76 L 171.41 33.47 C 171.74 33.49 172 33.78 171.97 34.11 L 171.89 35.36 C 171.88 35.52 171.81 35.67 171.69 35.78 C 171.58 35.88 171.44 35.93 171.29 35.93 C 171.28 35.92 171.26 35.92 171.25 35.92 Z  M 159.88 33.36 L 159.8 34.61 C 159.8 34.64 159.83 34.68 159.86 34.68 L 171.28 35.39 L 171.35 35.33 L 171.43 34.08 C 171.43 34.04 171.4 34.01 171.37 34.01 L 159.95 33.3 C 159.95 33.3 159.95 33.3 159.95 33.3 C 159.91 33.29 159.88 33.32 159.88 33.36 Z " fill="rgb(63,26,26)"/><path d=" M 117.9 32.81 L 106.48 32.1 L 106.48 32.1 C 106.15 32.08 105.89 31.79 105.92 31.46 L 106 30.21 C 106.01 30.05 106.08 29.9 106.2 29.8 C 106.32 29.69 106.47 29.64 106.64 29.65 L 118.06 30.36 C 118.22 30.37 118.37 30.44 118.47 30.56 C 118.58 30.68 118.63 30.84 118.62 31 L 118.54 32.25 C 118.52 32.57 118.25 32.82 117.94 32.82 C 117.92 32.81 117.91 32.81 117.9 32.81 Z  M 106.52 30.25 L 106.44 31.5 C 106.44 31.54 106.47 31.57 106.5 31.57 L 117.92 32.28 C 117.96 32.28 117.99 32.25 117.99 32.22 L 118.07 30.97 C 118.07 30.97 118.01 30.9 118.01 30.9 L 106.59 30.19 C 106.59 30.19 106.59 30.19 106.59 30.19 C 106.55 30.19 106.52 30.22 106.52 30.25 Z " fill="rgb(63,26,26)"/><g><g><linearGradient id="_lgradient_6" x1="0.5811480190676521" y1="0.011095993906236501" x2="0.424936010196185" y2="0.997375603314326" gradientTransform="matrix(44.269,0,0,43.989,217.929,49.08)" gradientUnits="userSpaceOnUse"><stop offset="0%" stop-opacity="1" style="stop-color:rgb(115,101,96)"/><stop offset="2.6100000000000003%" stop-opacity="1" style="stop-color:rgb(111,98,93)"/><stop offset="23.29%" stop-opacity="1" style="stop-color:rgb(88,77,73)"/><stop offset="42.620000000000005%" stop-opacity="1" style="stop-color:rgb(74,64,60)"/><stop offset="59.14%" stop-opacity="1" style="stop-color:rgb(69,60,56)"/></linearGradient><path d=" M 219.14 71.95 L 219.48 71.91 C 219.47 71.7 219.46 71.49 219.46 71.28 C 219.46 69.59 219.67 67.94 220.05 66.37 L 219.73 66.27 C 219.05 66.05 218.68 65.32 218.9 64.64 L 219.04 64.2 C 219.26 63.52 219.99 63.15 220.67 63.37 L 220.98 63.47 C 221.69 61.73 222.64 60.11 223.77 58.65 L 223.52 58.43 C 222.99 57.95 222.95 57.13 223.42 56.6 L 223.73 56.26 C 224.21 55.73 225.03 55.69 225.56 56.16 L 225.81 56.39 C 227.15 55.1 228.66 54 230.32 53.11 L 230.19 52.81 C 229.9 52.16 230.19 51.39 230.85 51.1 L 231.27 50.91 C 231.92 50.62 232.69 50.91 232.98 51.57 L 233.11 51.87 C 234.83 51.25 236.66 50.86 238.56 50.72 L 238.56 50.38 C 238.56 49.66 239.14 49.08 239.86 49.08 L 240.32 49.08 C 241.04 49.08 241.62 49.66 241.62 50.38 L 241.62 50.72 C 243.52 50.86 245.35 51.25 247.07 51.87 L 247.2 51.57 C 247.49 50.92 248.26 50.62 248.91 50.91 L 249.33 51.1 C 249.98 51.39 250.28 52.16 249.99 52.81 L 249.86 53.11 C 251.51 54 253.02 55.11 254.37 56.39 L 254.62 56.16 C 255.15 55.68 255.97 55.72 256.45 56.26 L 256.76 56.6 C 257.24 57.13 257.2 57.95 256.66 58.43 L 256.41 58.65 C 257.55 60.11 258.49 61.73 259.2 63.47 L 259.51 63.37 C 260.19 63.15 260.92 63.52 261.14 64.2 L 261.28 64.64 C 261.5 65.32 261.13 66.05 260.45 66.27 L 260.13 66.37 C 260.51 67.94 260.72 69.59 260.72 71.28 C 260.72 71.49 260.71 71.7 260.7 71.91 L 261.04 71.95 C 261.75 72.02 262.27 72.66 262.19 73.37 L 262.14 73.83 C 262.07 74.54 261.43 75.06 260.72 74.98 L 260.39 74.95 C 260.05 76.82 259.47 78.6 258.67 80.25 L 258.95 80.41 C 259.57 80.77 259.78 81.56 259.42 82.18 L 259.19 82.58 C 258.83 83.2 258.04 83.41 257.42 83.05 L 257.13 82.88 C 256.08 84.42 254.82 85.82 253.4 87.02 L 253.6 87.29 C 254.02 87.87 253.89 88.68 253.31 89.1 L 252.94 89.37 C 252.36 89.79 251.55 89.66 251.13 89.08 L 250.93 88.81 C 249.36 89.78 247.65 90.55 245.84 91.08 L 245.91 91.4 C 246.06 92.1 245.61 92.79 244.91 92.94 L 244.46 93.04 C 243.76 93.19 243.07 92.74 242.92 92.04 L 242.85 91.71 C 241.94 91.83 241.01 91.9 240.06 91.9 C 239.11 91.9 238.19 91.83 237.27 91.71 L 237.2 92.04 C 237.05 92.74 236.36 93.19 235.66 93.04 L 235.21 92.94 C 234.51 92.79 234.06 92.1 234.21 91.4 L 234.28 91.08 C 232.47 90.55 230.76 89.79 229.19 88.81 L 228.99 89.08 C 228.57 89.66 227.76 89.79 227.18 89.37 L 226.81 89.1 C 226.23 88.68 226.1 87.87 226.52 87.29 L 226.72 87.02 C 225.3 85.82 224.04 84.42 222.99 82.88 L 222.7 83.05 C 222.08 83.41 221.29 83.2 220.93 82.58 L 220.7 82.18 C 220.34 81.56 220.55 80.77 221.17 80.41 L 221.45 80.25 C 220.65 78.59 220.07 76.81 219.73 74.95 L 219.4 74.98 C 218.69 75.05 218.05 74.54 217.98 73.83 L 217.93 73.37 C 217.91 72.66 218.43 72.02 219.14 71.95 Z " fill="url(#_lgradient_6)"/><path d=" M 235.66 93.33 L 235.21 93.23 C 234.8 93.14 234.45 92.9 234.22 92.55 C 233.99 92.2 233.91 91.78 234 91.37 L 234.02 91.29 C 232.37 90.79 230.79 90.08 229.31 89.19 L 229.26 89.26 C 228.75 89.96 227.77 90.11 227.07 89.61 L 226.7 89.34 C 226.36 89.09 226.14 88.73 226.07 88.32 C 226 87.91 226.1 87.49 226.35 87.16 L 226.4 87.09 C 225.09 85.96 223.93 84.67 222.95 83.26 L 222.88 83.3 C 222.13 83.73 221.17 83.47 220.74 82.73 L 220.51 82.33 C 220.3 81.97 220.25 81.55 220.35 81.14 C 220.46 80.74 220.72 80.4 221.08 80.19 L 221.15 80.15 C 220.42 78.6 219.89 76.95 219.56 75.25 L 219.47 75.26 C 219.05 75.3 218.65 75.18 218.32 74.92 C 218 74.66 217.79 74.28 217.75 73.87 L 217.7 73.41 C 217.61 72.55 218.23 71.78 219.09 71.69 L 219.18 71.68 C 219.18 71.55 219.17 71.42 219.17 71.29 C 219.17 69.7 219.35 68.11 219.71 66.56 L 219.63 66.53 C 219.23 66.4 218.91 66.12 218.72 65.75 C 218.53 65.38 218.5 64.95 218.63 64.56 L 218.77 64.12 C 219.04 63.3 219.92 62.85 220.74 63.12 L 220.82 63.15 C 221.49 61.57 222.36 60.07 223.4 58.69 L 223.33 58.63 C 222.69 58.05 222.64 57.06 223.21 56.42 L 223.52 56.08 C 224.1 55.44 225.09 55.39 225.73 55.96 L 225.8 56.02 C 227.07 54.84 228.47 53.82 229.96 52.99 L 229.93 52.91 C 229.76 52.53 229.75 52.1 229.9 51.71 C 230.05 51.32 230.34 51.01 230.72 50.84 L 231.14 50.65 C 231.93 50.3 232.85 50.65 233.21 51.44 L 233.24 51.51 C 234.86 50.95 236.55 50.59 238.28 50.45 L 238.28 50.36 C 238.28 49.5 238.98 48.8 239.84 48.8 L 240.3 48.8 C 241.16 48.8 241.86 49.5 241.86 50.36 L 241.86 50.45 C 243.59 50.6 245.28 50.95 246.9 51.51 L 246.93 51.44 C 247.28 50.65 248.21 50.3 249 50.65 L 249.42 50.84 C 249.8 51.01 250.09 51.32 250.24 51.71 C 250.39 52.1 250.38 52.53 250.21 52.91 L 250.18 52.99 C 251.68 53.82 253.08 54.84 254.34 56.02 L 254.41 55.96 C 255.05 55.38 256.04 55.43 256.62 56.08 L 256.93 56.42 C 257.51 57.06 257.46 58.05 256.81 58.63 L 256.74 58.69 C 257.78 60.07 258.65 61.57 259.32 63.15 L 259.4 63.12 C 260.22 62.85 261.1 63.3 261.37 64.12 L 261.51 64.56 C 261.64 64.96 261.61 65.38 261.42 65.75 C 261.23 66.12 260.91 66.4 260.51 66.53 L 260.43 66.56 C 260.79 68.12 260.97 69.71 260.97 71.29 C 260.97 71.42 260.97 71.55 260.96 71.68 L 261.05 71.69 C 261.91 71.78 262.53 72.55 262.44 73.41 L 262.39 73.87 C 262.35 74.29 262.14 74.66 261.82 74.92 C 261.5 75.18 261.09 75.3 260.67 75.26 L 260.58 75.25 C 260.25 76.96 259.72 78.6 258.99 80.15 L 259.06 80.19 C 259.42 80.4 259.68 80.74 259.79 81.14 C 259.9 81.54 259.84 81.97 259.63 82.33 L 259.4 82.73 C 259.19 83.09 258.85 83.35 258.45 83.46 C 258.05 83.57 257.62 83.51 257.26 83.3 L 257.19 83.26 C 256.21 84.67 255.05 85.95 253.74 87.09 L 253.79 87.16 C 254.04 87.5 254.13 87.91 254.07 88.32 C 254 88.73 253.78 89.1 253.44 89.34 L 253.07 89.61 C 252.37 90.12 251.39 89.96 250.88 89.26 L 250.83 89.19 C 249.36 90.08 247.77 90.78 246.12 91.29 L 246.14 91.37 C 246.23 91.78 246.15 92.2 245.92 92.55 C 245.69 92.9 245.34 93.14 244.93 93.23 L 244.48 93.33 C 244.07 93.41 243.65 93.34 243.3 93.11 C 242.95 92.88 242.71 92.53 242.62 92.12 L 242.6 92.03 C 240.85 92.25 239.2 92.25 237.45 92.03 L 237.43 92.12 C 237.34 92.53 237.1 92.88 236.75 93.11 C 236.49 93.28 236.2 93.36 235.9 93.36 C 235.88 93.36 235.77 93.35 235.66 93.33 Z  M 237.36 91.47 C 239.23 91.72 240.99 91.72 242.86 91.47 L 243.11 91.44 L 243.23 92.01 C 243.29 92.28 243.45 92.51 243.68 92.66 C 243.91 92.81 244.19 92.86 244.45 92.8 L 244.9 92.7 C 245.17 92.64 245.4 92.48 245.55 92.25 C 245.7 92.02 245.75 91.74 245.69 91.48 L 245.57 90.91 L 245.81 90.84 C 247.58 90.33 249.27 89.57 250.84 88.6 L 251.05 88.47 L 251.39 88.94 C 251.72 89.4 252.37 89.5 252.83 89.17 L 253.2 88.9 C 253.42 88.74 253.57 88.5 253.61 88.23 C 253.65 87.96 253.59 87.69 253.43 87.46 L 253.09 87 L 253.28 86.84 C 254.69 85.65 255.93 84.27 256.96 82.75 L 257.1 82.54 L 257.6 82.83 C 257.84 82.97 258.11 83 258.38 82.93 C 258.65 82.86 258.87 82.69 259 82.45 L 259.23 82.05 C 259.37 81.81 259.4 81.54 259.33 81.27 C 259.26 81 259.09 80.78 258.85 80.65 L 258.35 80.36 L 258.46 80.14 C 259.26 78.49 259.83 76.73 260.15 74.91 L 260.19 74.66 L 260.77 74.72 C 261.04 74.75 261.31 74.67 261.52 74.5 C 261.73 74.33 261.87 74.08 261.9 73.81 L 261.95 73.35 C 262.01 72.79 261.6 72.28 261.04 72.22 L 260.46 72.16 L 260.47 71.76 C 260.48 71.6 260.48 71.45 260.48 71.29 C 260.48 69.66 260.28 68.03 259.89 66.44 L 259.83 66.2 L 260.38 66.02 C 260.64 65.94 260.85 65.75 260.98 65.51 C 261.1 65.27 261.13 64.99 261.04 64.73 L 260.9 64.29 C 260.73 63.75 260.15 63.45 259.6 63.63 L 259.05 63.81 L 258.96 63.58 C 258.26 61.88 257.34 60.28 256.2 58.82 L 256.05 58.62 L 256.49 58.23 C 256.91 57.85 256.95 57.2 256.57 56.78 L 256.26 56.44 C 255.88 56.02 255.23 55.98 254.81 56.36 L 254.37 56.75 L 254.19 56.58 C 252.85 55.3 251.35 54.21 249.74 53.34 L 249.52 53.22 L 249.75 52.69 C 249.86 52.44 249.87 52.16 249.77 51.9 C 249.67 51.64 249.48 51.44 249.23 51.33 L 248.81 51.14 C 248.29 50.91 247.68 51.14 247.45 51.66 L 247.22 52.19 L 247 52.1 C 245.28 51.48 243.47 51.1 241.62 50.96 L 241.37 50.94 L 241.37 50.35 C 241.37 49.78 240.91 49.32 240.34 49.32 L 239.88 49.32 C 239.31 49.32 238.85 49.78 238.85 50.35 L 238.85 50.94 L 238.6 50.96 C 236.75 51.1 234.94 51.48 233.22 52.1 L 232.99 52.18 L 232.76 51.65 C 232.53 51.13 231.92 50.9 231.4 51.13 L 230.98 51.32 C 230.73 51.43 230.54 51.63 230.44 51.89 C 230.34 52.15 230.35 52.43 230.46 52.68 L 230.69 53.21 L 230.47 53.33 C 228.86 54.2 227.36 55.29 226.02 56.57 L 225.84 56.74 L 225.4 56.35 C 224.98 55.97 224.33 56.01 223.95 56.43 L 223.64 56.77 C 223.26 57.19 223.3 57.84 223.72 58.22 L 224.16 58.61 L 224 58.8 C 222.87 60.26 221.94 61.86 221.24 63.56 L 221.15 63.79 L 220.6 63.61 C 220.06 63.44 219.48 63.73 219.3 64.27 L 219.16 64.71 C 219.08 64.97 219.1 65.25 219.22 65.49 C 219.34 65.73 219.56 65.92 219.82 66 L 220.37 66.18 L 220.31 66.42 C 219.92 68.01 219.73 69.64 219.73 71.27 C 219.73 71.43 219.74 71.59 219.74 71.75 L 219.75 72.15 L 219.17 72.21 C 218.61 72.27 218.2 72.78 218.26 73.34 L 218.31 73.8 C 218.34 74.07 218.47 74.32 218.69 74.49 C 218.9 74.66 219.17 74.74 219.44 74.71 L 220.02 74.65 L 220.06 74.9 C 220.39 76.73 220.96 78.49 221.75 80.13 L 221.86 80.35 L 221.36 80.64 C 221.12 80.78 220.95 81 220.88 81.26 C 220.81 81.53 220.85 81.8 220.98 82.04 L 221.21 82.44 C 221.49 82.93 222.12 83.1 222.61 82.82 L 223.11 82.53 L 223.25 82.74 C 224.28 84.26 225.52 85.63 226.93 86.83 L 227.12 86.99 L 226.78 87.46 C 226.62 87.68 226.55 87.95 226.6 88.23 C 226.64 88.5 226.79 88.74 227.01 88.9 L 227.38 89.17 C 227.84 89.5 228.48 89.4 228.82 88.94 L 229.16 88.47 L 229.37 88.6 C 230.93 89.57 232.63 90.32 234.4 90.84 L 234.64 90.91 L 234.52 91.48 C 234.46 91.75 234.51 92.02 234.66 92.25 C 234.81 92.48 235.04 92.64 235.31 92.7 L 235.76 92.8 C 236.03 92.86 236.3 92.81 236.53 92.66 C 236.76 92.51 236.92 92.28 236.98 92.01 L 237.1 91.44 L 237.36 91.47 Z " fill="rgb(63,26,26)"/></g><g><linearGradient id="_lgradient_7" x1="0.5062589413447789" y1="0.14454708709660374" x2="0.5037197218738626" y2="-0.0009291835253027458" gradientTransform="matrix(27.96,0,0,27.26,226.13,57)" gradientUnits="userSpaceOnUse"><stop offset="0%" stop-opacity="1" style="stop-color:rgb(122,109,103)"/><stop offset="5.42%" stop-opacity="1" style="stop-color:rgb(116,104,98)"/><stop offset="32.99%" stop-opacity="1" style="stop-color:rgb(93,82,78)"/><stop offset="58.78%" stop-opacity="1" style="stop-color:rgb(79,69,65)"/><stop offset="80.81%" stop-opacity="1" style="stop-color:rgb(74,65,61)"/></linearGradient><path d=" M 246.33 84.26 L 254.09 74.53 L 251.32 62.4 L 240.11 57 L 228.9 62.4 L 226.13 74.53 L 233.89 84.26 L 246.33 84.26 Z " fill="url(#_lgradient_7)"/><path d=" M 225.84 74.6 L 228.67 62.22 L 240.11 56.71 L 251.55 62.22 L 254.38 74.6 L 246.46 84.53 L 233.76 84.53 L 225.84 74.6 Z  M 253.8 74.47 L 251.09 62.59 L 240.11 57.3 L 229.13 62.59 L 226.42 74.47 L 234.02 84 L 246.2 84 L 253.8 74.47 Z " fill="rgb(63,26,26)"/></g><g><linearGradient id="_lgradient_8" x1="0.999860724233983" y1="0.029457381740643107" x2="-0.00040854224697994823" y2="0.029457381740642986" gradientTransform="matrix(10.77,0,0,10.5,234.85,66.34)" gradientUnits="userSpaceOnUse"><stop offset="0%" stop-opacity="1" style="stop-color:rgb(115,101,96)"/><stop offset="2.6100000000000003%" stop-opacity="1" style="stop-color:rgb(111,98,93)"/><stop offset="23.29%" stop-opacity="1" style="stop-color:rgb(88,77,73)"/><stop offset="42.620000000000005%" stop-opacity="1" style="stop-color:rgb(74,64,60)"/><stop offset="59.14%" stop-opacity="1" style="stop-color:rgb(69,60,56)"/></linearGradient><path d=" M 244.55 74.76 L 245.62 70.09 L 242.63 66.34 L 237.83 66.34 L 234.85 70.09 L 235.91 74.76 L 240.23 76.84 L 244.55 74.76 Z " fill="url(#_lgradient_8)"/><path d=" M 235.68 74.95 L 234.56 70.02 L 237.71 66.07 L 242.76 66.07 L 245.91 70.02 L 244.79 74.95 L 240.24 77.14 L 235.68 74.95 Z  M 245.33 70.15 L 242.5 66.6 L 237.96 66.6 L 235.13 70.15 L 236.14 74.57 L 240.23 76.54 L 244.32 74.57 L 245.33 70.15 Z " fill="rgb(63,26,26)"/></g><g><path d=" M 239.61 55.28 L 241.02 55.28 C 241.91 55.28 242.63 56 242.63 56.89 L 242.63 66.07 L 238 66.07 L 238 56.89 C 237.99 56 238.72 55.28 239.61 55.28 Z " fill="rgb(113,88,87)"/><path d=" M 237.73 66.07 L 237.73 56.14 C 237.73 55.52 238.24 55.01 238.86 55.01 L 241.77 55.01 C 242.39 55.01 242.9 55.52 242.9 56.14 L 242.9 66.07 C 242.9 66.22 242.78 66.34 242.63 66.34 L 238 66.34 C 237.85 66.34 237.73 66.22 237.73 66.07 Z  M 242.36 56.14 C 242.36 55.81 242.09 55.54 241.76 55.54 L 238.85 55.54 C 238.52 55.54 238.25 55.81 238.25 56.14 L 238.25 65.8 L 242.35 65.8 L 242.35 56.14 L 242.36 56.14 Z " fill="rgb(63,26,26)"/></g><g><path d=" M 252.39 60.83 L 253.27 61.93 C 253.82 62.63 253.71 63.64 253.01 64.19 L 245.83 69.91 L 242.94 66.29 L 250.12 60.57 C 250.82 60.02 251.83 60.14 252.39 60.83 Z " fill="rgb(113,88,87)"/><path d=" M 245.62 70.09 L 242.73 66.47 C 242.69 66.41 242.67 66.34 242.67 66.27 C 242.68 66.2 242.71 66.13 242.77 66.09 L 250.53 59.9 C 250.77 59.71 251.06 59.63 251.36 59.66 C 251.66 59.69 251.93 59.84 252.12 60.08 L 253.93 62.35 C 254.32 62.84 254.24 63.55 253.75 63.94 L 246 70.13 C 245.95 70.17 245.89 70.19 245.83 70.19 C 245.75 70.19 245.68 70.16 245.62 70.09 Z  M 250.87 60.32 L 243.32 66.34 L 245.88 69.54 L 253.43 63.52 C 253.69 63.31 253.73 62.94 253.52 62.68 L 251.71 60.41 L 251.71 60.41 C 251.61 60.29 251.47 60.21 251.31 60.19 C 251.29 60.19 251.26 60.19 251.24 60.19 C 251.11 60.19 250.98 60.23 250.87 60.32 Z " fill="rgb(63,26,26)"/></g><g><path d=" M 256.01 74.28 L 255.7 75.66 C 255.5 76.53 254.64 77.07 253.77 76.87 L 244.82 74.83 L 245.85 70.31 L 254.8 72.35 C 255.67 72.55 256.21 73.42 256.01 74.28 Z " fill="rgb(113,88,87)"/><path d=" M 254.44 77.3 L 244.76 75.09 C 244.69 75.07 244.63 75.03 244.59 74.97 C 244.55 74.91 244.54 74.84 244.56 74.77 L 245.59 70.25 C 245.62 70.11 245.77 70.01 245.91 70.05 L 255.59 72.26 C 256.2 72.4 256.58 73.01 256.44 73.62 L 256.44 73.62 L 255.79 76.45 C 255.72 76.74 255.54 77 255.29 77.16 C 255.11 77.27 254.9 77.33 254.69 77.33 C 254.61 77.33 254.52 77.32 254.44 77.3 Z  M 255.92 73.5 C 255.99 73.18 255.79 72.86 255.47 72.79 L 246.05 70.64 L 245.14 74.64 L 254.56 76.79 C 254.72 76.83 254.87 76.8 255.01 76.71 C 255.14 76.63 255.24 76.49 255.27 76.34 L 255.92 73.5 L 255.92 73.5 Z " fill="rgb(63,26,26)"/></g><g><path d=" M 247.76 85.51 L 246.49 86.12 C 245.69 86.51 244.72 86.17 244.34 85.37 L 240.36 77.1 L 244.54 75.09 L 248.52 83.36 C 248.9 84.16 248.56 85.12 247.76 85.51 Z " fill="rgb(113,88,87)"/><path d=" M 244.42 86.16 L 240.11 77.22 C 240.05 77.09 240.1 76.93 240.24 76.86 L 244.42 74.85 C 244.48 74.82 244.56 74.81 244.62 74.84 C 244.69 74.86 244.74 74.91 244.77 74.98 L 249.08 83.92 C 249.35 84.48 249.11 85.16 248.55 85.43 L 248.55 85.43 L 245.93 86.69 C 245.77 86.77 245.6 86.8 245.44 86.8 C 245.02 86.8 244.61 86.56 244.42 86.16 Z  M 248.31 84.94 C 248.61 84.8 248.73 84.44 248.59 84.14 L 244.4 75.44 L 240.71 77.22 L 244.9 85.92 C 245.04 86.22 245.4 86.34 245.7 86.2 L 248.31 84.94 L 248.31 84.94 Z " fill="rgb(63,26,26)"/></g><g><path d=" M 233.83 86.05 L 232.56 85.44 C 231.76 85.05 231.42 84.09 231.81 83.29 L 235.79 75.02 L 239.97 77.03 L 235.99 85.3 C 235.6 86.1 234.64 86.44 233.83 86.05 Z " fill="rgb(113,88,87)"/><path d=" M 234.39 86.62 L 231.77 85.36 C 231.21 85.09 230.97 84.41 231.24 83.85 L 235.55 74.91 C 235.58 74.85 235.64 74.8 235.7 74.77 C 235.77 74.75 235.84 74.75 235.9 74.78 L 240.08 76.79 C 240.21 76.85 240.27 77.01 240.21 77.15 L 235.9 86.09 C 235.77 86.36 235.54 86.57 235.25 86.67 C 235.13 86.71 235 86.73 234.88 86.73 C 234.71 86.73 234.55 86.69 234.39 86.62 Z  M 235.92 75.37 L 231.73 84.07 C 231.59 84.37 231.71 84.72 232.01 84.87 L 234.63 86.13 L 234.63 86.13 C 234.77 86.2 234.94 86.21 235.09 86.16 C 235.24 86.11 235.36 86 235.43 85.86 L 239.62 77.16 L 235.92 75.37 Z " fill="rgb(63,26,26)"/></g><g><path d=" M 224.73 75.5 L 224.42 74.12 C 224.22 73.25 224.76 72.39 225.63 72.19 L 234.58 70.15 L 235.61 74.67 L 226.66 76.71 C 225.79 76.91 224.93 76.37 224.73 75.5 Z " fill="rgb(113,88,87)"/><path d=" M 225.14 77 C 224.88 76.84 224.71 76.59 224.64 76.29 L 223.99 73.46 C 223.85 72.85 224.23 72.24 224.84 72.1 L 234.52 69.89 C 234.59 69.87 234.66 69.89 234.72 69.92 C 234.78 69.96 234.82 70.02 234.84 70.09 L 235.87 74.61 C 235.89 74.68 235.87 74.75 235.84 74.81 C 235.8 74.87 235.74 74.91 235.67 74.93 L 225.99 77.14 C 225.91 77.16 225.82 77.17 225.74 77.17 C 225.53 77.17 225.32 77.11 225.14 77 Z  M 234.38 70.48 L 224.96 72.63 C 224.64 72.7 224.44 73.02 224.51 73.34 L 225.16 76.17 L 225.16 76.17 C 225.2 76.33 225.29 76.46 225.42 76.54 C 225.55 76.62 225.71 76.65 225.87 76.62 L 235.29 74.47 L 234.38 70.48 Z " fill="rgb(63,26,26)"/></g><g><path d=" M 227.3 61.81 L 228.18 60.71 C 228.73 60.01 229.75 59.9 230.44 60.45 L 237.62 66.17 L 234.73 69.79 L 227.55 64.07 C 226.86 63.52 226.74 62.51 227.3 61.81 Z " fill="rgb(113,88,87)"/><path d=" M 234.56 70.01 L 226.8 63.82 C 226.56 63.63 226.41 63.36 226.38 63.06 C 226.35 62.76 226.43 62.46 226.62 62.23 L 228.43 59.96 C 228.82 59.47 229.53 59.39 230.02 59.78 L 237.78 65.97 C 237.84 66.01 237.87 66.08 237.88 66.15 C 237.89 66.22 237.87 66.29 237.82 66.35 L 234.93 69.97 C 234.88 70.04 234.8 70.07 234.72 70.07 C 234.67 70.07 234.61 70.05 234.56 70.01 Z  M 229.69 60.19 C 229.43 59.99 229.06 60.03 228.85 60.28 L 227.04 62.55 C 227.04 62.55 227.04 62.55 227.04 62.55 C 226.94 62.67 226.9 62.83 226.91 62.99 C 226.93 63.15 227.01 63.29 227.13 63.39 L 234.68 69.41 L 237.23 66.21 L 229.69 60.19 Z " fill="rgb(63,26,26)"/></g><g><circle vector-effect="non-scaling-stroke" cx="240.11" cy="71.35" r="2.1200000000000045" fill="rgb(91,75,75)"/><path d=" M 237.73 71.35 C 237.73 70.03 238.8 68.96 240.12 68.96 C 241.44 68.96 242.51 70.03 242.51 71.35 C 242.51 72.67 241.44 73.74 240.12 73.74 C 238.8 73.74 237.73 72.67 237.73 71.35 Z  M 238.26 71.35 C 238.26 72.37 239.09 73.2 240.11 73.2 C 241.13 73.2 241.96 72.37 241.96 71.35 C 241.96 70.33 241.13 69.5 240.11 69.5 C 239.09 69.5 238.26 70.33 238.26 71.35 Z " fill="rgb(63,26,26)"/></g></g><g><g><linearGradient id="_lgradient_9" x1="0.5809741797192949" y1="0.01125938545467231" x2="0.4247622075719628" y2="0.9975387629966853" gradientTransform="matrix(44.269,0,0,43.999,35.839,49.35)" gradientUnits="userSpaceOnUse"><stop offset="0%" stop-opacity="1" style="stop-color:rgb(115,101,96)"/><stop offset="2.6100000000000003%" stop-opacity="1" style="stop-color:rgb(111,98,93)"/><stop offset="23.29%" stop-opacity="1" style="stop-color:rgb(88,77,73)"/><stop offset="42.620000000000005%" stop-opacity="1" style="stop-color:rgb(74,64,60)"/><stop offset="59.14%" stop-opacity="1" style="stop-color:rgb(69,60,56)"/></linearGradient><path d=" M 37.05 72.23 L 37.39 72.19 C 37.38 71.98 37.37 71.77 37.37 71.56 C 37.37 69.87 37.58 68.22 37.96 66.65 L 37.64 66.55 C 36.96 66.33 36.59 65.6 36.81 64.92 L 36.95 64.48 C 37.17 63.8 37.9 63.43 38.58 63.65 L 38.89 63.75 C 39.6 62.01 40.55 60.39 41.68 58.93 L 41.43 58.7 C 40.9 58.22 40.86 57.4 41.33 56.87 L 41.64 56.53 C 42.12 56 42.94 55.96 43.47 56.43 L 43.72 56.66 C 45.06 55.37 46.57 54.27 48.23 53.38 L 48.1 53.08 C 47.81 52.43 48.1 51.66 48.76 51.37 L 49.18 51.18 C 49.83 50.89 50.6 51.18 50.89 51.84 L 51.02 52.14 C 52.74 51.52 54.57 51.13 56.47 50.99 L 56.47 50.65 C 56.47 49.93 57.05 49.35 57.77 49.35 L 58.23 49.35 C 58.95 49.35 59.53 49.93 59.53 50.65 L 59.53 50.99 C 61.43 51.13 63.26 51.52 64.98 52.14 L 65.11 51.84 C 65.4 51.19 66.17 50.89 66.82 51.18 L 67.24 51.37 C 67.89 51.66 68.19 52.43 67.9 53.08 L 67.77 53.38 C 69.42 54.27 70.93 55.38 72.28 56.66 L 72.53 56.43 C 73.06 55.95 73.88 55.99 74.36 56.53 L 74.67 56.87 C 75.15 57.4 75.11 58.22 74.57 58.7 L 74.32 58.93 C 75.46 60.39 76.4 62.01 77.11 63.75 L 77.42 63.65 C 78.1 63.43 78.83 63.8 79.05 64.48 L 79.19 64.92 C 79.41 65.6 79.04 66.33 78.36 66.55 L 78.04 66.65 C 78.42 68.22 78.63 69.87 78.63 71.56 C 78.63 71.77 78.62 71.98 78.61 72.19 L 78.95 72.23 C 79.66 72.3 80.18 72.94 80.1 73.65 L 80.05 74.11 C 79.98 74.82 79.34 75.34 78.63 75.26 L 78.3 75.23 C 77.96 77.1 77.38 78.88 76.58 80.53 L 76.86 80.69 C 77.48 81.05 77.69 81.84 77.33 82.46 L 77.1 82.86 C 76.74 83.48 75.95 83.69 75.33 83.33 L 75.04 83.16 C 73.99 84.7 72.73 86.09 71.31 87.3 L 71.51 87.57 C 71.93 88.15 71.8 88.96 71.22 89.38 L 70.85 89.65 C 70.27 90.07 69.46 89.94 69.04 89.36 L 68.84 89.09 C 67.27 90.06 65.56 90.83 63.75 91.36 L 63.82 91.68 C 63.97 92.38 63.52 93.07 62.82 93.22 L 62.37 93.32 C 61.67 93.47 60.98 93.02 60.83 92.32 L 60.76 91.99 C 59.85 92.11 58.92 92.18 57.97 92.18 C 57.02 92.18 56.1 92.11 55.18 91.99 L 55.11 92.32 C 54.96 93.02 54.27 93.47 53.57 93.32 L 53.12 93.22 C 52.42 93.07 51.97 92.38 52.12 91.68 L 52.19 91.36 C 50.38 90.83 48.67 90.07 47.1 89.09 L 46.9 89.36 C 46.48 89.94 45.67 90.07 45.09 89.65 L 44.72 89.38 C 44.14 88.96 44.01 88.15 44.43 87.57 L 44.63 87.3 C 43.21 86.1 41.95 84.7 40.9 83.16 L 40.61 83.33 C 39.99 83.69 39.2 83.48 38.84 82.86 L 38.61 82.46 C 38.25 81.84 38.46 81.05 39.08 80.69 L 39.36 80.53 C 38.56 78.87 37.98 77.09 37.64 75.23 L 37.31 75.26 C 36.6 75.33 35.96 74.82 35.89 74.11 L 35.84 73.65 C 35.82 72.94 36.33 72.3 37.05 72.23 Z " fill="url(#_lgradient_9)"/><path d=" M 60.61 92.4 L 60.59 92.31 C 58.84 92.53 57.19 92.53 55.44 92.31 L 55.42 92.4 C 55.24 93.24 54.41 93.78 53.56 93.6 L 53.11 93.5 C 52.7 93.41 52.35 93.17 52.12 92.82 C 51.89 92.47 51.82 92.05 51.9 91.64 L 51.92 91.56 C 50.27 91.06 48.69 90.35 47.21 89.46 L 47.16 89.53 C 46.65 90.23 45.67 90.38 44.97 89.88 L 44.6 89.61 C 44.26 89.36 44.04 89 43.97 88.59 C 43.91 88.18 44 87.76 44.25 87.43 L 44.3 87.36 C 42.99 86.23 41.83 84.94 40.85 83.53 L 40.78 83.57 C 40.42 83.78 40 83.83 39.59 83.73 C 39.19 83.62 38.85 83.36 38.64 83 L 38.41 82.6 C 37.98 81.85 38.24 80.89 38.98 80.46 L 39.05 80.42 C 38.32 78.87 37.79 77.22 37.46 75.52 L 37.37 75.53 C 36.95 75.57 36.55 75.45 36.22 75.19 C 35.9 74.93 35.69 74.55 35.65 74.14 L 35.6 73.68 C 35.51 72.82 36.13 72.05 36.99 71.96 L 37.08 71.95 C 37.08 71.82 37.07 71.69 37.07 71.56 C 37.07 69.97 37.25 68.38 37.61 66.83 L 37.53 66.8 C 36.71 66.53 36.26 65.65 36.53 64.83 L 36.67 64.39 C 36.8 63.99 37.07 63.67 37.45 63.48 C 37.82 63.29 38.25 63.26 38.64 63.39 L 38.72 63.42 C 39.39 61.84 40.26 60.34 41.3 58.96 L 41.23 58.9 C 40.92 58.62 40.74 58.24 40.71 57.82 C 40.69 57.4 40.83 57 41.11 56.69 L 41.42 56.35 C 41.7 56.04 42.08 55.86 42.5 55.83 C 42.92 55.81 43.32 55.95 43.63 56.23 L 43.7 56.29 C 44.97 55.1 46.37 54.09 47.86 53.26 L 47.83 53.19 C 47.48 52.4 47.84 51.48 48.62 51.12 L 49.04 50.93 C 49.42 50.76 49.85 50.75 50.24 50.9 C 50.63 51.05 50.94 51.34 51.11 51.72 L 51.14 51.79 C 52.76 51.23 54.45 50.87 56.18 50.73 L 56.18 50.64 C 56.18 49.78 56.88 49.08 57.74 49.08 L 58.2 49.08 C 59.06 49.08 59.76 49.78 59.76 50.64 L 59.76 50.73 C 61.49 50.88 63.18 51.23 64.8 51.79 L 64.83 51.72 C 65.18 50.93 66.11 50.58 66.9 50.93 L 67.32 51.12 C 68.11 51.47 68.46 52.4 68.11 53.19 L 68.08 53.26 C 69.58 54.09 70.98 55.11 72.24 56.29 L 72.31 56.23 C 72.62 55.95 73.01 55.81 73.44 55.83 C 73.86 55.85 74.24 56.03 74.52 56.35 L 74.83 56.69 C 75.11 57 75.25 57.4 75.23 57.82 C 75.21 58.24 75.03 58.62 74.71 58.9 L 74.64 58.96 C 75.68 60.34 76.55 61.84 77.22 63.42 L 77.3 63.39 C 77.7 63.26 78.12 63.29 78.49 63.48 C 78.86 63.67 79.14 63.99 79.27 64.39 L 79.41 64.83 C 79.68 65.65 79.23 66.53 78.41 66.8 L 78.33 66.83 C 78.69 68.39 78.87 69.98 78.87 71.56 C 78.87 71.69 78.87 71.82 78.86 71.95 L 78.95 71.96 C 79.81 72.05 80.43 72.82 80.34 73.68 L 80.29 74.14 C 80.2 75 79.43 75.62 78.57 75.53 L 78.48 75.52 C 78.15 77.22 77.62 78.87 76.89 80.42 L 76.96 80.46 C 77.71 80.89 77.96 81.85 77.53 82.6 L 77.38 83 C 77.17 83.36 76.83 83.62 76.43 83.73 C 76.03 83.84 75.61 83.78 75.24 83.57 L 75.17 83.53 C 74.19 84.94 73.03 86.22 71.72 87.36 L 71.77 87.43 C 72.02 87.77 72.11 88.18 72.05 88.59 C 71.98 89 71.76 89.37 71.42 89.61 L 71.05 89.88 C 70.35 90.39 69.37 90.23 68.86 89.53 L 68.81 89.46 C 67.34 90.35 65.75 91.05 64.1 91.56 L 64.12 91.64 C 64.21 92.05 64.13 92.47 63.9 92.82 C 63.67 93.17 63.32 93.41 62.91 93.5 L 62.46 93.6 C 62.35 93.62 62.24 93.63 62.13 93.63 C 61.42 93.64 60.77 93.14 60.61 92.4 Z  M 69.3 89.23 C 69.46 89.45 69.7 89.6 69.97 89.64 C 70.24 89.68 70.51 89.62 70.74 89.46 L 71.11 89.19 C 71.33 89.03 71.48 88.79 71.52 88.52 C 71.56 88.25 71.5 87.98 71.34 87.76 L 71 87.29 L 71.19 87.13 C 72.6 85.93 73.84 84.56 74.87 83.04 L 75 82.82 L 75.5 83.11 C 75.74 83.25 76.01 83.28 76.28 83.21 C 76.55 83.14 76.77 82.97 76.9 82.73 L 77.13 82.33 C 77.41 81.84 77.24 81.21 76.75 80.93 L 76.25 80.64 L 76.36 80.42 C 77.16 78.77 77.73 77.01 78.05 75.18 L 78.09 74.93 L 78.69 75 C 79.25 75.06 79.76 74.65 79.82 74.09 L 79.87 73.63 C 79.93 73.07 79.52 72.56 78.95 72.5 L 78.37 72.44 L 78.38 72.02 C 78.39 71.87 78.39 71.72 78.39 71.57 C 78.39 69.94 78.19 68.31 77.81 66.72 L 77.75 66.48 L 78.3 66.3 C 78.84 66.12 79.13 65.54 78.96 65 L 78.82 64.56 C 78.74 64.3 78.55 64.09 78.31 63.96 C 78.07 63.84 77.79 63.81 77.53 63.9 L 76.98 64.08 L 76.89 63.85 C 76.19 62.15 75.27 60.55 74.13 59.09 L 73.98 58.89 L 74.42 58.5 C 74.62 58.32 74.74 58.06 74.76 57.79 C 74.77 57.52 74.68 57.25 74.5 57.05 L 74.19 56.71 C 74.01 56.51 73.75 56.39 73.48 56.37 C 73.21 56.36 72.94 56.45 72.74 56.63 L 72.3 57.02 L 72.12 56.85 C 70.78 55.57 69.28 54.48 67.67 53.61 L 67.45 53.49 L 67.69 52.96 C 67.92 52.44 67.69 51.83 67.17 51.6 L 66.75 51.41 C 66.5 51.3 66.22 51.29 65.96 51.39 C 65.7 51.49 65.5 51.68 65.39 51.93 L 65.15 52.46 L 64.92 52.38 C 63.2 51.76 61.39 51.38 59.54 51.24 L 59.29 51.22 L 59.29 50.63 C 59.29 50.06 58.83 49.6 58.26 49.6 L 57.8 49.6 C 57.23 49.6 56.77 50.06 56.77 50.63 L 56.77 51.22 L 56.52 51.24 C 54.67 51.38 52.86 51.76 51.14 52.38 L 50.91 52.46 L 50.67 51.93 C 50.44 51.41 49.83 51.18 49.31 51.41 L 48.89 51.6 C 48.37 51.83 48.14 52.44 48.37 52.96 L 48.61 53.49 L 48.39 53.61 C 46.78 54.48 45.28 55.57 43.94 56.85 L 43.76 57.02 L 43.32 56.63 C 43.12 56.45 42.85 56.35 42.58 56.37 C 42.31 56.38 42.05 56.5 41.87 56.71 L 41.56 57.05 C 41.38 57.25 41.28 57.52 41.3 57.79 C 41.31 58.06 41.43 58.32 41.64 58.5 L 42.07 58.89 L 41.92 59.09 C 40.79 60.55 39.86 62.15 39.16 63.85 L 39.07 64.08 L 38.5 63.9 C 38.24 63.82 37.96 63.84 37.72 63.96 C 37.48 64.08 37.29 64.3 37.21 64.56 L 37.07 65 C 36.9 65.54 37.19 66.12 37.73 66.3 L 38.28 66.48 L 38.22 66.72 C 37.83 68.31 37.64 69.94 37.64 71.57 C 37.64 71.73 37.65 71.89 37.65 72.06 L 37.66 72.45 L 37.08 72.51 C 36.52 72.57 36.11 73.08 36.16 73.64 L 36.21 74.1 C 36.24 74.37 36.37 74.62 36.59 74.79 C 36.8 74.96 37.07 75.04 37.34 75.01 L 37.92 74.95 L 37.96 75.2 C 38.29 77.03 38.86 78.79 39.65 80.44 L 39.76 80.66 L 39.26 80.95 C 38.77 81.23 38.6 81.86 38.88 82.35 L 39.11 82.75 C 39.25 82.99 39.47 83.16 39.73 83.23 C 40 83.3 40.27 83.26 40.51 83.13 L 41.01 82.84 L 41.15 83.05 C 42.18 84.57 43.42 85.94 44.83 87.14 L 45.02 87.3 L 44.68 87.77 C 44.52 87.99 44.45 88.26 44.5 88.53 C 44.54 88.8 44.69 89.04 44.91 89.2 L 45.28 89.47 C 45.74 89.8 46.38 89.7 46.72 89.24 L 47.06 88.77 L 47.27 88.9 C 48.83 89.87 50.52 90.62 52.3 91.14 L 52.54 91.21 L 52.42 91.78 C 52.36 92.05 52.41 92.32 52.56 92.55 C 52.71 92.78 52.94 92.94 53.21 93 L 53.66 93.1 C 54.21 93.22 54.76 92.86 54.88 92.31 L 55 91.74 L 55.25 91.77 C 57.12 92.02 58.89 92.02 60.75 91.77 L 61 91.74 L 61.12 92.31 C 61.24 92.87 61.79 93.22 62.34 93.1 L 62.79 93 C 63.06 92.94 63.29 92.78 63.44 92.55 C 63.59 92.32 63.64 92.05 63.58 91.78 L 63.46 91.21 L 63.7 91.14 C 65.47 90.62 67.16 89.87 68.73 88.9 L 68.94 88.77 L 69.3 89.23 Z " fill="rgb(63,26,26)"/></g><g><linearGradient id="_lgradient_10" x1="0.5061645796064418" y1="5.984408014571947" x2="0.4890805008944554" y2="5.005628050350138" gradientTransform="matrix(27.95,0,0,27.26,44.04,57.28)" gradientUnits="userSpaceOnUse"><stop offset="0%" stop-opacity="1" style="stop-color:rgb(122,109,103)"/><stop offset="5.42%" stop-opacity="1" style="stop-color:rgb(116,104,98)"/><stop offset="32.99%" stop-opacity="1" style="stop-color:rgb(93,82,78)"/><stop offset="58.78%" stop-opacity="1" style="stop-color:rgb(79,69,65)"/><stop offset="80.81%" stop-opacity="1" style="stop-color:rgb(74,65,61)"/></linearGradient><path d=" M 64.24 84.54 L 71.99 74.81 L 69.23 62.68 L 58.02 57.28 L 46.81 62.68 L 44.04 74.81 L 51.79 84.54 L 64.24 84.54 Z " fill="url(#_lgradient_10)"/><path d=" M 43.75 74.88 L 46.58 62.5 L 58.02 56.99 L 69.46 62.5 L 72.29 74.88 L 64.45 84.71 L 64.37 84.81 L 51.67 84.81 L 43.75 74.88 Z  M 71.7 74.75 L 68.99 62.87 L 58.01 57.58 L 47.03 62.87 L 44.32 74.75 L 51.92 84.28 L 64.1 84.28 L 71.7 74.75 Z " fill="rgb(63,26,26)"/></g><g><linearGradient id="_lgradient_11" x1="1.0000649953574765" y1="1.6180094228504114" x2="-0.00020427112348730958" y2="1.6180094228504112" gradientTransform="matrix(10.77,0,0,10.5,52.75,66.62)" gradientUnits="userSpaceOnUse"><stop offset="0%" stop-opacity="1" style="stop-color:rgb(115,101,96)"/><stop offset="2.6100000000000003%" stop-opacity="1" style="stop-color:rgb(111,98,93)"/><stop offset="23.29%" stop-opacity="1" style="stop-color:rgb(88,77,73)"/><stop offset="42.620000000000005%" stop-opacity="1" style="stop-color:rgb(74,64,60)"/><stop offset="59.14%" stop-opacity="1" style="stop-color:rgb(69,60,56)"/></linearGradient><path d=" M 62.45 75.04 L 63.52 70.36 L 60.53 66.62 L 55.74 66.62 L 52.75 70.36 L 53.81 75.04 L 58.13 77.12 L 62.45 75.04 Z " fill="url(#_lgradient_11)"/><path d=" M 53.58 75.22 L 52.46 70.29 L 55.61 66.34 L 60.66 66.34 L 63.81 70.29 L 62.69 75.22 L 58.14 77.41 L 53.58 75.22 Z  M 63.23 70.43 L 60.4 66.88 L 55.86 66.88 L 53.03 70.43 L 54.04 74.85 L 58.13 76.82 L 62.22 74.85 L 63.23 70.43 Z " fill="rgb(63,26,26)"/></g><g><path d=" M 57.51 55.56 L 58.92 55.56 C 59.81 55.56 60.53 56.28 60.53 57.17 L 60.53 66.35 L 55.9 66.35 L 55.9 57.17 C 55.9 56.28 56.62 55.56 57.51 55.56 Z " fill="rgb(113,88,87)"/><path d=" M 55.63 66.35 L 55.63 56.42 C 55.63 55.8 56.14 55.29 56.76 55.29 L 59.67 55.29 C 60.29 55.29 60.8 55.8 60.8 56.42 L 60.8 66.35 C 60.8 66.5 60.68 66.62 60.53 66.62 L 55.9 66.62 C 55.75 66.62 55.63 66.5 55.63 66.35 Z  M 60.26 56.42 C 60.26 56.09 59.99 55.82 59.66 55.82 L 56.75 55.82 C 56.42 55.82 56.15 56.09 56.15 56.42 L 56.15 66.08 L 60.25 66.08 L 60.25 56.42 L 60.26 56.42 Z " fill="rgb(63,26,26)"/></g><g><path d=" M 70.29 61.11 L 71.17 62.21 C 71.72 62.91 71.61 63.92 70.91 64.47 L 63.73 70.19 L 60.84 66.57 L 68.02 60.85 C 68.72 60.3 69.73 60.41 70.29 61.11 Z " fill="rgb(113,88,87)"/><path d=" M 63.7 70.47 C 63.63 70.46 63.56 70.43 63.52 70.37 L 60.63 66.75 C 60.54 66.63 60.56 66.47 60.67 66.37 L 68.43 60.18 C 68.67 59.99 68.97 59.91 69.26 59.94 C 69.56 59.97 69.83 60.12 70.02 60.36 L 71.83 62.63 C 72.02 62.87 72.1 63.16 72.07 63.46 C 72.04 63.76 71.89 64.03 71.65 64.22 L 63.89 70.41 C 63.84 70.45 63.78 70.47 63.72 70.47 C 63.72 70.47 63.71 70.47 63.7 70.47 Z  M 68.77 60.6 L 61.22 66.62 L 63.77 69.82 L 71.32 63.8 C 71.44 63.7 71.52 63.56 71.54 63.4 C 71.56 63.24 71.51 63.09 71.41 62.96 L 69.6 60.69 L 69.6 60.69 C 69.5 60.57 69.36 60.49 69.2 60.47 C 69.18 60.47 69.15 60.47 69.13 60.47 C 69.01 60.47 68.88 60.51 68.77 60.6 Z " fill="rgb(63,26,26)"/></g><g><path d=" M 73.91 74.56 L 73.6 75.94 C 73.4 76.81 72.54 77.35 71.67 77.15 L 62.72 75.11 L 63.75 70.59 L 72.7 72.63 C 73.57 72.83 74.11 73.69 73.91 74.56 Z " fill="rgb(113,88,87)"/><path d=" M 72.34 77.58 L 62.66 75.37 C 62.59 75.35 62.53 75.31 62.49 75.25 C 62.45 75.19 62.44 75.12 62.46 75.05 L 63.49 70.53 C 63.52 70.39 63.67 70.29 63.81 70.33 L 73.49 72.54 C 74.1 72.68 74.48 73.29 74.34 73.9 L 73.69 76.73 C 73.62 77.02 73.44 77.28 73.19 77.44 C 73.01 77.55 72.8 77.61 72.59 77.61 C 72.51 77.61 72.42 77.6 72.34 77.58 Z  M 63.04 74.9 L 72.46 77.05 C 72.62 77.08 72.78 77.06 72.91 76.97 C 73.05 76.89 73.14 76.75 73.17 76.6 L 73.82 73.77 L 73.82 73.77 C 73.89 73.45 73.69 73.13 73.37 73.06 L 63.95 70.91 L 63.04 74.9 Z " fill="rgb(63,26,26)"/></g><g><path d=" M 65.66 85.78 L 64.39 86.39 C 63.59 86.78 62.62 86.44 62.24 85.64 L 58.26 77.37 L 62.44 75.36 L 66.42 83.63 C 66.8 84.43 66.46 85.4 65.66 85.78 Z " fill="rgb(113,88,87)"/><path d=" M 62.97 87.01 C 62.68 86.91 62.45 86.7 62.32 86.43 L 58.01 77.49 C 57.98 77.43 57.97 77.35 58 77.29 C 58.03 77.23 58.07 77.17 58.14 77.14 L 62.32 75.13 C 62.45 75.07 62.61 75.12 62.68 75.26 L 66.99 84.2 C 67.12 84.47 67.14 84.78 67.04 85.07 C 66.94 85.36 66.74 85.58 66.46 85.72 L 63.84 86.98 C 63.68 87.05 63.52 87.09 63.35 87.09 C 63.21 87.07 63.09 87.05 62.97 87.01 Z  M 58.61 77.5 L 62.8 86.2 C 62.94 86.5 63.3 86.62 63.6 86.48 L 66.22 85.22 L 66.22 85.22 C 66.36 85.15 66.47 85.03 66.52 84.88 C 66.57 84.73 66.56 84.57 66.49 84.42 L 62.3 75.72 L 58.61 77.5 Z " fill="rgb(63,26,26)"/></g><g><path d=" M 51.74 86.33 L 50.47 85.72 C 49.67 85.33 49.33 84.37 49.72 83.57 L 53.7 75.3 L 57.88 77.31 L 53.9 85.58 C 53.5 86.38 52.54 86.71 51.74 86.33 Z " fill="rgb(113,88,87)"/><path d=" M 52.29 86.89 L 49.67 85.63 C 49.11 85.36 48.87 84.68 49.14 84.12 L 53.45 75.18 C 53.51 75.05 53.68 74.99 53.81 75.05 L 57.99 77.06 C 58.05 77.09 58.1 77.15 58.13 77.21 C 58.16 77.27 58.15 77.35 58.12 77.41 L 53.81 86.35 C 53.68 86.62 53.45 86.83 53.16 86.93 C 53.04 86.97 52.91 86.99 52.79 86.99 C 52.62 87.01 52.45 86.97 52.29 86.89 Z  M 53.82 75.65 L 49.63 84.35 C 49.49 84.65 49.61 85 49.91 85.15 L 52.53 86.41 L 52.53 86.41 C 52.67 86.48 52.83 86.49 52.99 86.44 C 53.14 86.39 53.26 86.28 53.33 86.14 L 57.52 77.44 L 53.82 75.65 Z " fill="rgb(63,26,26)"/></g><g><path d=" M 42.63 75.78 L 42.32 74.4 C 42.12 73.53 42.66 72.67 43.53 72.47 L 52.48 70.43 L 53.51 74.95 L 44.56 76.99 C 43.69 77.19 42.83 76.65 42.63 75.78 Z " fill="rgb(113,88,87)"/><path d=" M 43.04 77.28 C 42.78 77.12 42.61 76.87 42.54 76.57 L 42.54 76.57 L 41.89 73.74 C 41.75 73.13 42.13 72.52 42.74 72.38 L 52.42 70.17 C 52.57 70.13 52.71 70.23 52.74 70.37 L 53.77 74.89 C 53.79 74.96 53.77 75.03 53.74 75.09 C 53.7 75.15 53.64 75.19 53.57 75.21 L 43.89 77.42 C 43.81 77.44 43.72 77.45 43.64 77.45 C 43.43 77.45 43.22 77.39 43.04 77.28 Z  M 52.28 70.75 L 42.86 72.9 C 42.54 72.97 42.34 73.29 42.41 73.61 L 43.06 76.44 C 43.1 76.6 43.19 76.73 43.32 76.81 C 43.45 76.89 43.61 76.92 43.77 76.89 L 53.19 74.74 L 52.28 70.75 Z " fill="rgb(63,26,26)"/></g><g><path d=" M 45.2 62.09 L 46.08 60.99 C 46.63 60.29 47.65 60.18 48.35 60.73 L 55.53 66.45 L 52.64 70.07 L 45.46 64.35 C 44.76 63.8 44.65 62.78 45.2 62.09 Z " fill="rgb(113,88,87)"/><path d=" M 52.47 70.29 L 44.7 64.1 C 44.21 63.71 44.13 63 44.52 62.51 L 44.52 62.51 L 46.33 60.24 C 46.72 59.75 47.43 59.67 47.92 60.06 L 55.68 66.25 C 55.8 66.34 55.82 66.51 55.72 66.63 L 52.83 70.25 C 52.79 70.31 52.72 70.34 52.65 70.35 C 52.64 70.35 52.63 70.35 52.62 70.35 C 52.57 70.34 52.51 70.32 52.47 70.29 Z  M 47.59 60.47 C 47.33 60.27 46.96 60.31 46.75 60.56 L 44.94 62.83 C 44.74 63.09 44.78 63.46 45.03 63.67 L 52.58 69.69 L 55.13 66.49 L 47.59 60.47 Z " fill="rgb(63,26,26)"/></g><g><circle vector-effect="non-scaling-stroke" cx="58.02" cy="71.63" r="2.1199999999999974" fill="rgb(91,75,75)"/><path d=" M 55.63 71.63 C 55.63 70.31 56.7 69.24 58.02 69.24 C 59.34 69.24 60.41 70.31 60.41 71.63 C 60.41 72.95 59.34 74.02 58.02 74.02 C 56.7 74.02 55.63 72.95 55.63 71.63 Z  M 56.17 71.63 C 56.17 72.65 57 73.48 58.02 73.48 C 59.04 73.48 59.87 72.65 59.87 71.63 C 59.87 70.61 59.04 69.78 58.02 69.78 C 57 69.78 56.17 70.61 56.17 71.63 Z " fill="rgb(63,26,26)"/></g></g><g><path d=" M 257.81 40.62 L 255.31 44.11 L 227.24 42.86 L 225.18 38.83 L 257.81 40.62 Z " fill="rgb(125,57,56)"/><path d=" M 227.07 43.12 L 224.73 38.54 L 258.31 40.38 L 255.44 44.38 L 227.07 43.12 Z  M 225.64 39.13 L 227.41 42.6 L 255.18 43.84 L 257.31 40.87 L 225.64 39.13 Z " fill="rgb(63,26,26)"/></g><g><path d=" M 209.45 63.06 L 225.18 38.83 L 227.24 42.86 L 213.83 63.59 L 209.45 63.06 Z " fill="rgb(143,78,69)"/><path d=" M 208.99 63.27 L 225.21 38.3 L 227.55 42.87 L 213.97 63.88 L 208.99 63.27 Z  M 225.16 39.37 L 209.91 62.84 L 213.69 63.3 L 226.92 42.83 L 225.16 39.37 Z " fill="rgb(63,26,26)"/></g><g><path d=" M 74.46 38.83 L 71.87 43.03 L 44.16 41.78 L 41.57 37.76 L 74.46 38.83 Z " fill="rgb(125,57,56)"/><path d=" M 44.01 42.04 L 41.07 37.47 L 74.94 38.57 L 72.02 43.3 L 44.01 42.04 Z  M 42.07 38.04 L 44.31 41.52 L 71.73 42.76 L 74 39.09 L 42.07 38.04 Z " fill="rgb(63,26,26)"/></g><g><path d=" M 26.97 56.96 L 32.72 57.51 L 44.16 41.78 L 41.57 37.76 L 26.97 56.96 Z " fill="rgb(143,78,69)"/><path d=" M 26.46 57.18 L 41.58 37.29 L 44.48 41.79 L 32.84 57.79 L 26.46 57.18 Z  M 41.55 38.23 L 27.47 56.74 L 32.59 57.23 L 43.83 41.77 L 41.55 38.23 Z " fill="rgb(63,26,26)"/></g><g><path d=" M 197.08 16.33 L 200.45 28.72 L 211.86 29.45 L 208.99 20.5 L 197.08 16.33 Z " fill="rgb(118,58,50)"/><path d=" M 200.24 28.97 L 196.68 15.91 L 209.2 20.29 L 212.22 29.74 L 200.24 28.97 Z  M 197.47 16.75 L 200.66 28.46 L 211.48 29.16 L 208.78 20.71 L 197.47 16.75 Z " fill="rgb(63,26,26)"/></g><rect x="204.807" y="18.596" width="0.54" height="10.63" transform="matrix(0.976,-0.22,0.22,0.976,-0.243,45.638)" fill="rgb(63,26,26)"/><g><path d=" M 270.97 59.8 L 276.57 59.8 C 277.02 59.8 277.39 59.43 277.39 58.98 L 277.39 58.98 C 277.39 58.53 277.02 58.16 276.57 58.16 L 270.97 58.16 C 270.52 58.16 270.15 58.53 270.15 58.98 L 270.15 58.98 C 270.15 59.43 270.52 59.8 270.97 59.8 Z " fill="rgb(255,119,51)"/><path d=" M 269.88 58.98 C 269.88 58.38 270.37 57.89 270.97 57.89 L 276.57 57.89 C 277.17 57.89 277.66 58.38 277.66 58.98 C 277.66 59.58 277.17 60.07 276.57 60.07 L 270.97 60.07 C 270.37 60.07 269.88 59.58 269.88 58.98 Z  M 270.97 58.43 C 270.67 58.43 270.42 58.68 270.42 58.98 C 270.42 59.28 270.67 59.53 270.97 59.53 L 276.57 59.53 C 276.87 59.53 277.12 59.28 277.12 58.98 C 277.12 58.68 276.87 58.43 276.57 58.43 L 270.97 58.43 Z " fill="rgb(63,26,26)"/></g><path d=" M 85.09 75.58 C 85.04 75.53 85.01 75.46 85.01 75.39 L 85.36 63.86 L 71.72 43.29 L 44.29 42.05 L 32.93 57.67 C 32.87 57.75 32.78 57.78 32.69 57.78 L 6.58 55.28 C 6.46 55.27 6.36 55.18 6.34 55.05 L 1.34 23.05 C 1.33 22.98 1.35 22.91 1.39 22.85 C 1.43 22.79 1.5 22.75 1.57 22.74 L 164.81 2 C 164.85 1.99 164.89 2 164.93 2.01 L 278.82 40.99 C 278.94 41.03 279.01 41.14 279 41.27 L 277.57 57.42 L 278.74 57.45 C 278.89 57.45 279 57.57 279 57.72 L 279 63.24 C 279 63.3 278.98 63.35 278.95 63.39 L 275.2 68.75 C 275.16 68.81 275.1 68.85 275.03 68.86 L 264.84 70.65 C 264.76 70.66 264.68 70.64 264.62 70.59 C 264.56 70.54 264.53 70.46 264.53 70.38 L 264.89 58.84 L 255.18 44.36 L 227.4 43.12 L 214.1 63.67 L 214.1 75.39 C 214.1 75.54 213.98 75.66 213.83 75.66 L 85.28 75.66 C 85.21 75.66 85.14 75.63 85.09 75.58 Z  M 213.56 63.59 C 213.56 63.54 213.57 63.49 213.6 63.44 L 227.01 42.7 C 227.06 42.62 227.14 42.58 227.25 42.58 L 255.32 43.83 C 255.41 43.83 255.48 43.88 255.53 43.95 L 265.36 58.61 C 265.39 58.66 265.41 58.71 265.41 58.77 L 265.06 70.06 L 274.82 68.35 L 278.46 63.15 L 278.46 57.98 L 277.27 57.95 C 277.2 57.95 277.13 57.92 277.08 57.86 C 277.03 57.8 277.01 57.73 277.01 57.66 L 278.44 41.43 L 268.54 38.04 L 164.81 2.54 L 1.92 23.24 L 6.85 54.76 L 32.6 57.23 L 43.95 41.62 C 44 41.55 44.09 41.5 44.18 41.51 L 71.89 42.76 C 71.98 42.76 72.05 42.81 72.1 42.88 L 85.86 63.62 C 85.89 63.67 85.91 63.72 85.9 63.78 L 85.55 75.12 L 213.55 75.12 L 213.55 63.59 L 213.56 63.59 Z " fill="rgb(63,26,26)"/></g></svg>