<?xml version="1.0" encoding="utf-8"?>
<!-- Generator: Adobe Illustrator 24.0.0, SVG Export Plug-In . SVG Version: 6.00 Build 0)  -->
<svg version="1.1" id="Layer_1" xmlns="http://www.w3.org/2000/svg" xmlns:xlink="http://www.w3.org/1999/xlink" x="0px" y="0px"
	 viewBox="0 0 279 96" style="enable-background:new 0 0 279 96;" xml:space="preserve">
<style type="text/css">
	.st0{fill:#473336;}
	.st1{fill:#CEAF91;}
	.st2{fill:#3F1A1A;}
	.st3{fill:#603737;}
	.st4{fill:#EAD2BE;}
	.st5{fill:#773A32;}
	.st6{fill:#C48380;}
	.st7{fill:#763A32;}
	.st8{fill:#F2DFD3;}
	.st9{fill:url(#XMLID_41_);}
	.st10{fill:url(#XMLID_42_);}
	.st11{fill:url(#XMLID_43_);}
	.st12{fill:#715857;}
	.st13{fill:#5B4B4B;}
	.st14{fill:url(#XMLID_44_);}
	.st15{fill:url(#XMLID_45_);}
	.st16{fill:url(#XMLID_46_);}
	.st17{fill:#7D3938;}
	.st18{fill:#8F4E45;}
	.st19{fill:#FF7733;}
</style>
<polygon id="XMLID_97_" class="st0" points="264.78,70.39 213.83,75.39 85.28,75.39 31.69,72.27 32.72,57.51 44.16,41.78 
	71.87,43.03 85.64,63.77 213.83,63.59 227.24,42.86 255.31,44.11 265.14,58.76 "/>
<g>
	<polygon id="XMLID_40_" class="st1" points="1.61,23.01 6.61,55.01 26.97,56.96 32.72,57.51 44.16,41.78 71.87,43.03 85.64,63.77 
		85.28,75.39 213.83,75.39 213.83,63.59 227.24,42.86 255.31,44.11 265.14,58.76 264.78,70.39 274.98,68.6 278.73,63.24 
		278.73,57.72 277.28,57.68 278.73,41.25 268.63,37.79 164.84,2.27 	"/>
	<path class="st2" d="M85.09,75.58c-0.05-0.05-0.08-0.12-0.08-0.19l0.35-11.53L71.72,43.29l-27.43-1.24L32.93,57.67
		c-0.06,0.08-0.15,0.11-0.24,0.11l-26.11-2.5c-0.12-0.01-0.22-0.1-0.24-0.23l-5-32c-0.01-0.07,0.01-0.14,0.05-0.2
		c0.04-0.06,0.11-0.1,0.18-0.11L164.81,2c0.04-0.01,0.08,0,0.12,0.01l113.89,38.98c0.12,0.04,0.19,0.15,0.18,0.28l-1.43,16.15
		l1.17,0.03c0.15,0,0.26,0.12,0.26,0.27v5.52c0,0.06-0.02,0.11-0.05,0.15l-3.75,5.36c-0.04,0.06-0.1,0.1-0.17,0.11l-10.19,1.79
		c-0.08,0.01-0.16-0.01-0.22-0.06c-0.06-0.05-0.09-0.13-0.09-0.21l0.36-11.54l-9.71-14.48l-27.78-1.24L214.1,63.67v11.72
		c0,0.15-0.12,0.27-0.27,0.27H85.28C85.21,75.66,85.14,75.63,85.09,75.58z M213.56,63.59c0-0.05,0.01-0.1,0.04-0.15l13.41-20.74
		c0.05-0.08,0.13-0.12,0.24-0.12l28.07,1.25c0.09,0,0.16,0.05,0.21,0.12l9.83,14.66c0.03,0.05,0.05,0.1,0.05,0.16l-0.35,11.29
		l9.76-1.71l3.64-5.2v-5.17l-1.19-0.03c-0.07,0-0.14-0.03-0.19-0.09c-0.05-0.06-0.07-0.13-0.07-0.2l1.43-16.23l-9.9-3.39
		L164.81,2.54L1.92,23.24l4.93,31.52l25.75,2.47l11.35-15.61c0.05-0.07,0.14-0.12,0.23-0.11l27.71,1.25c0.09,0,0.16,0.05,0.21,0.12
		l13.76,20.74c0.03,0.05,0.05,0.1,0.04,0.16l-0.35,11.34h128V63.59z"/>
</g>
<g>
	<polygon id="XMLID_39_" class="st3" points="26.97,56.96 32.72,57.51 44.16,41.78 71.87,43.03 85.64,63.77 85.28,75.39 
		213.83,75.39 213.83,63.59 227.24,42.86 255.31,44.11 265.14,58.76 264.78,70.39 274.98,68.6 278.73,63.24 278.73,57.72 
		277.28,57.68 268.63,57.68 257.81,40.62 225.18,38.83 209.45,63.06 208.2,68.6 89.75,68.6 89.75,61 74.46,38.83 41.57,37.76 	"/>
	<path class="st2" d="M85.37,63.85L71.72,43.29l-27.43-1.24L32.84,57.8l-6.38-0.61l14.97-19.7l33.03,1.08l0.14,0l15.41,22.35v7.42
		h117.96l1.21-5.34l15.85-24.44l32.78,1.79l0.14,0.01l10.81,17.05h8.51l1.71,0.04v5.87l-3.87,5.52l-10.63,1.86l0.37-11.87
		l-9.71-14.48l-27.78-1.24L214.1,63.67v11.99H85.01L85.37,63.85z M213.56,63.51l13.54-20.93l28.36,1.26l9.91,14.77l0.05,0.07
		l-0.35,11.38l9.76-1.71l3.64-5.2v-5.17l-1.19-0.03h-8.79l-10.82-17.07l-32.33-1.77L209.7,63.16l-1.29,5.71H89.48v-7.79L74.32,39.1
		L41.7,38.03L27.47,56.74l5.12,0.49l11.44-15.72l27.99,1.26l13.84,20.86l0.05,0.07l-0.35,11.43h128V63.51z"/>
</g>
<g>
	<polygon id="XMLID_38_" class="st2" points="32.72,57.51 32.72,60.13 10.23,58.12 10.23,55.36 	"/>
	<path class="st2" d="M9.96,58.36v-3.3l22.78,2.19l0.24,0.02v3.15L9.96,58.36z M10.5,55.65v2.22l21.95,1.96v-2.08L10.5,55.65z"/>
</g>
<polygon id="XMLID_80_" class="st4" points="1.61,23.01 268.63,37.79 164.84,2.27 "/>
<g>
	<polygon id="XMLID_37_" class="st5" points="32.72,60.13 31.69,72.27 5.34,63.48 5.34,57.74 10.23,58.12 	"/>
	<path class="st2" d="M5.07,63.68v-6.22l5.19,0.4l22.75,2.03l-1.08,12.74L5.07,63.68z M10.21,58.39l-4.61-0.35v5.26l25.84,8.61
		l0.98-11.53L10.21,58.39z"/>
</g>
<path class="st2" d="M35.69,45.74l-7.63-0.39c-0.14-0.01-0.25-0.13-0.25-0.27v-7.87c0-0.07,0.03-0.14,0.08-0.19
	c0.05-0.05,0.13-0.08,0.2-0.07l13.5,0.54c0.1,0,0.19,0.06,0.23,0.15c0.04,0.09,0.03,0.2-0.03,0.28l-5.87,7.71
	c-0.05,0.07-0.13,0.11-0.21,0.11C35.7,45.74,35.69,45.74,35.69,45.74z M28.34,37.5v7.33l7.24,0.37l5.47-7.19L28.34,37.5z"/>
<g>
	<polygon id="XMLID_35_" class="st6" points="103.7,22.52 108.66,22.83 110.82,22.97 144.33,25.12 153.09,25.68 158.2,26.01 
		192.2,28.19 200.45,28.72 211.86,29.45 239.67,31.23 208.99,20.5 197.08,16.33 164.17,4.82 154.01,6.14 147.97,6.92 108.66,12.04 
		104.37,12.59 	"/>
	<path class="st2" d="M239.65,31.5l-135.97-8.72c-0.07,0-0.14-0.04-0.18-0.09s-0.07-0.12-0.07-0.19l0.67-9.92
		c0.01-0.13,0.11-0.23,0.23-0.25l59.81-7.78c0.04-0.01,0.08,0,0.12,0.01l75.49,26.42c0.13,0.04,0.2,0.18,0.17,0.31
		c-0.03,0.13-0.14,0.21-0.26,0.21C239.66,31.5,239.66,31.5,239.65,31.5z M104.62,12.83l-0.64,9.43l133.75,8.57L164.14,5.09
		L104.62,12.83z"/>
</g>
<path class="st2" d="M209.72,63.06l0.98-28.34c0-0.04-0.01-0.08-0.02-0.11l-2.23-5.5l-0.5,0.2l2.21,5.45l-0.98,28.28L209.72,63.06z"
	/>
<path class="st2" d="M156.8,68.61l0.54-0.01l-0.54-37.37c0-0.02,0-0.04-0.01-0.06l-1.43-5.42l-0.52,0.14l1.42,5.39L156.8,68.61z"/>
<polygon class="st2" points="104.05,68.61 104.59,68.59 103.07,28.45 103.96,22.56 103.43,22.48 102.54,28.42 "/>
<g>
	<polygon id="XMLID_33_" class="st3" points="103.7,22.52 108.66,22.83 110.82,22.97 110,15.01 142.99,10.72 144.33,25.12 
		153.09,25.68 150.76,9.78 160.15,8.7 189.52,18.72 192.2,28.19 200.45,28.72 198.35,21.01 219.55,28.64 211.42,28.07 211.86,29.45 
		239.67,31.23 208.99,20.5 197.08,16.33 164.17,4.82 154.01,6.14 147.97,6.92 108.66,12.04 104.37,12.59 	"/>
	<path class="st2" d="M211.66,29.71l-0.62-1.93l6.6,0.46l-18.89-6.8l2.06,7.57L192,28.44l-2.7-9.51l-29.18-9.95l-9.05,1.03
		l2.33,15.96l-9.32-0.6l-1.34-14.35l-32.45,4.22l0.83,8.02l-7.71-0.49l0.7-10.41l60.02-7.81l0.06-0.01l77.4,27.08L211.66,29.71z
		 M104.62,12.83l-0.64,9.43l6.54,0.42l-0.82-7.91l33.52-4.36l1.35,14.45l8.2,0.53l-2.31-15.85l9.66-1.1l0.06-0.01l29.42,10.03
		l0.13,0.05l2.67,9.42l7.69,0.49l-2.13-7.84l23.5,8.46l-9.67-0.68l0.26,0.83l25.68,1.64L164.14,5.09L104.62,12.83z"/>
</g>
<g>
	<polygon id="XMLID_32_" class="st7" points="147.97,6.92 149.75,25.47 158.2,26.01 154.01,6.14 	"/>
	<path class="st2" d="M149.51,25.72l-1.83-19.03l6.54-0.85l4.32,20.46L149.51,25.72z M148.26,7.16L150,25.21l7.87,0.5L153.8,6.43
		L148.26,7.16z"/>
</g>
<g>
	<polygon id="XMLID_31_" class="st7" points="103.7,22.52 108.66,22.83 108.66,12.04 104.37,12.59 	"/>
	<path class="st2" d="M103.41,22.77l0.7-10.41l4.81-0.63v11.39L103.41,22.77z M104.62,12.83l-0.64,9.43l4.41,0.28V12.34
		L104.62,12.83z"/>
</g>
<path class="st2" d="M268.36,57.68V37.79c0-0.09,0.04-0.17,0.11-0.22c0.07-0.05,0.16-0.06,0.24-0.04l10.1,3.45
	c0.12,0.04,0.19,0.15,0.18,0.28l-1.45,16.43c-0.01,0.14-0.13,0.24-0.27,0.24h-8.65C268.48,57.95,268.36,57.83,268.36,57.68z
	 M278.44,41.43l-9.55-3.26v19.25h8.13L278.44,41.43z"/>
<g>
	<polygon id="XMLID_30_" class="st8" points="278.5,43.88 268.63,41.29 268.63,37.79 278.73,41.25 	"/>
	<path class="st2" d="M278.43,44.14l-9.87-2.59c-0.12-0.03-0.2-0.14-0.2-0.26v-3.5c0-0.09,0.04-0.17,0.11-0.22
		c0.07-0.05,0.16-0.06,0.24-0.04l10.1,3.45c0.12,0.04,0.19,0.15,0.18,0.28l-0.23,2.63c-0.01,0.08-0.05,0.15-0.11,0.2
		c-0.05,0.03-0.1,0.05-0.15,0.05C278.47,44.15,278.45,44.15,278.43,44.14z M268.9,38.17v2.92l9.36,2.46l0.19-2.11L268.9,38.17z"/>
</g>
<path class="st2" d="M85.09,75.58c-0.05-0.05-0.08-0.12-0.08-0.19l0.35-11.62c0-0.09,0.05-0.17,0.12-0.21l4.11-2.77
	c0.05-0.03,0.1-0.04,0.15-0.05l119.73,2.06l4.38,0.54c0.13,0.02,0.24,0.13,0.24,0.27v11.8c0,0.15-0.12,0.27-0.27,0.27H85.28
	C85.21,75.66,85.14,75.63,85.09,75.58z M213.56,63.83l-4.11-0.51L89.83,61.27l-3.93,2.65l-0.34,11.2h128V63.83z"/>
<path class="st2" d="M171.25,35.92l-11.42-0.71h0c-0.16-0.01-0.31-0.08-0.41-0.2c-0.11-0.12-0.16-0.28-0.15-0.44l0.08-1.25
	c0.02-0.33,0.31-0.58,0.64-0.56l11.42,0.71c0.33,0.02,0.59,0.31,0.56,0.64l-0.08,1.25c-0.01,0.16-0.08,0.31-0.2,0.42
	c-0.11,0.1-0.25,0.15-0.4,0.15C171.28,35.92,171.26,35.92,171.25,35.92z M159.88,33.36l-0.08,1.25c0,0.03,0.03,0.07,0.06,0.07
	l11.42,0.71l0.07-0.06l0.08-1.25c0-0.04-0.03-0.07-0.06-0.07l-11.42-0.71c0,0,0,0,0,0C159.91,33.29,159.88,33.32,159.88,33.36z"/>
<path class="st2" d="M117.9,32.81l-11.42-0.71l0,0c-0.33-0.02-0.59-0.31-0.56-0.64l0.08-1.25c0.01-0.16,0.08-0.31,0.2-0.41
	c0.12-0.11,0.27-0.16,0.44-0.15l11.42,0.71c0.16,0.01,0.31,0.08,0.41,0.2c0.11,0.12,0.16,0.28,0.15,0.44l-0.08,1.25
	c-0.02,0.32-0.29,0.57-0.6,0.57C117.92,32.81,117.91,32.81,117.9,32.81z M106.52,30.25l-0.08,1.25c0,0.04,0.03,0.07,0.06,0.07
	l11.42,0.71c0.04,0,0.07-0.03,0.07-0.06l0.08-1.25c0,0-0.06-0.07-0.06-0.07l-11.42-0.71c0,0,0,0,0,0
	C106.55,30.19,106.52,30.22,106.52,30.25z"/>
<g id="XMLID_19_">
	<g>
		
			<linearGradient id="XMLID_41_" gradientUnits="userSpaceOnUse" x1="256.6837" y1="49.5681" x2="263.599" y2="93.2294" gradientTransform="matrix(-1 0 0 1 500.3398 0)">
			<stop  offset="0" style="stop-color:#736560"/>
			<stop  offset="0.0261" style="stop-color:#6F625D"/>
			<stop  offset="0.2329" style="stop-color:#584D49"/>
			<stop  offset="0.4262" style="stop-color:#4A403C"/>
			<stop  offset="0.5914" style="stop-color:#453C38"/>
		</linearGradient>
		<path id="XMLID_29_" class="st9" d="M219.14,71.95l0.34-0.04c-0.01-0.21-0.02-0.42-0.02-0.63c0-1.69,0.21-3.34,0.59-4.91
			l-0.32-0.1c-0.68-0.22-1.05-0.95-0.83-1.63l0.14-0.44c0.22-0.68,0.95-1.05,1.63-0.83l0.31,0.1c0.71-1.74,1.66-3.36,2.79-4.82
			l-0.25-0.22c-0.53-0.48-0.57-1.3-0.1-1.83l0.31-0.34c0.48-0.53,1.3-0.57,1.83-0.1l0.25,0.23c1.34-1.29,2.85-2.39,4.51-3.28
			l-0.13-0.3c-0.29-0.65,0-1.42,0.66-1.71l0.42-0.19c0.65-0.29,1.42,0,1.71,0.66l0.13,0.3c1.72-0.62,3.55-1.01,5.45-1.15v-0.34
			c0-0.72,0.58-1.3,1.3-1.3h0.46c0.72,0,1.3,0.58,1.3,1.3v0.34c1.9,0.14,3.73,0.53,5.45,1.15l0.13-0.3
			c0.29-0.65,1.06-0.95,1.71-0.66l0.42,0.19c0.65,0.29,0.95,1.06,0.66,1.71l-0.13,0.3c1.65,0.89,3.16,2,4.51,3.28l0.25-0.23
			c0.53-0.48,1.35-0.44,1.83,0.1l0.31,0.34c0.48,0.53,0.44,1.35-0.1,1.83l-0.25,0.22c1.14,1.46,2.08,3.08,2.79,4.82l0.31-0.1
			c0.68-0.22,1.41,0.15,1.63,0.83l0.14,0.44c0.22,0.68-0.15,1.41-0.83,1.63l-0.32,0.1c0.38,1.57,0.59,3.22,0.59,4.91
			c0,0.21-0.01,0.42-0.02,0.63l0.34,0.04c0.71,0.07,1.23,0.71,1.15,1.42l-0.05,0.46c-0.07,0.71-0.71,1.23-1.42,1.15l-0.33-0.03
			c-0.34,1.87-0.92,3.65-1.72,5.3l0.28,0.16c0.62,0.36,0.83,1.15,0.47,1.77l-0.23,0.4c-0.36,0.62-1.15,0.83-1.77,0.47l-0.29-0.17
			c-1.05,1.54-2.31,2.94-3.73,4.14l0.2,0.27c0.42,0.58,0.29,1.39-0.29,1.81l-0.37,0.27c-0.58,0.42-1.39,0.29-1.81-0.29l-0.2-0.27
			c-1.57,0.97-3.28,1.74-5.09,2.27l0.07,0.32c0.15,0.7-0.3,1.39-1,1.54l-0.45,0.1c-0.7,0.15-1.39-0.3-1.54-1l-0.07-0.33
			c-0.91,0.12-1.84,0.19-2.79,0.19c-0.95,0-1.87-0.07-2.79-0.19l-0.07,0.33c-0.15,0.7-0.84,1.15-1.54,1l-0.45-0.1
			c-0.7-0.15-1.15-0.84-1-1.54l0.07-0.32c-1.81-0.53-3.52-1.29-5.09-2.27l-0.2,0.27c-0.42,0.58-1.23,0.71-1.81,0.29l-0.37-0.27
			c-0.58-0.42-0.71-1.23-0.29-1.81l0.2-0.27c-1.42-1.2-2.68-2.6-3.73-4.14l-0.29,0.17c-0.62,0.36-1.41,0.15-1.77-0.47l-0.23-0.4
			c-0.36-0.62-0.15-1.41,0.47-1.77l0.28-0.16c-0.8-1.66-1.38-3.44-1.72-5.3l-0.33,0.03c-0.71,0.07-1.35-0.44-1.42-1.15l-0.05-0.46
			C217.91,72.66,218.43,72.02,219.14,71.95z"/>
		<path class="st2" d="M235.66,93.33l-0.45-0.1c-0.41-0.09-0.76-0.33-0.99-0.68s-0.31-0.77-0.22-1.18l0.02-0.08
			c-1.65-0.5-3.23-1.21-4.71-2.1l-0.05,0.07c-0.51,0.7-1.49,0.85-2.19,0.35l-0.37-0.27c-0.34-0.25-0.56-0.61-0.63-1.02
			s0.03-0.83,0.28-1.16l0.05-0.07c-1.31-1.13-2.47-2.42-3.45-3.83l-0.07,0.04c-0.75,0.43-1.71,0.17-2.14-0.57l-0.23-0.4
			c-0.21-0.36-0.26-0.78-0.16-1.19c0.11-0.4,0.37-0.74,0.73-0.95l0.07-0.04c-0.73-1.55-1.26-3.2-1.59-4.9l-0.09,0.01
			c-0.42,0.04-0.82-0.08-1.15-0.34c-0.32-0.26-0.53-0.64-0.57-1.05l-0.05-0.46c-0.09-0.86,0.53-1.63,1.39-1.72l0.09-0.01
			c0-0.13-0.01-0.26-0.01-0.39c0-1.59,0.18-3.18,0.54-4.73l-0.08-0.03c-0.4-0.13-0.72-0.41-0.91-0.78c-0.19-0.37-0.22-0.8-0.09-1.19
			l0.14-0.44c0.27-0.82,1.15-1.27,1.97-1l0.08,0.03c0.67-1.58,1.54-3.08,2.58-4.46l-0.07-0.06c-0.64-0.58-0.69-1.57-0.12-2.21
			l0.31-0.34c0.58-0.64,1.57-0.69,2.21-0.12l0.07,0.06c1.27-1.18,2.67-2.2,4.16-3.03l-0.03-0.08c-0.17-0.38-0.18-0.81-0.03-1.2
			c0.15-0.39,0.44-0.7,0.82-0.87l0.42-0.19c0.79-0.35,1.71,0,2.07,0.79l0.03,0.07c1.62-0.56,3.31-0.92,5.04-1.06v-0.09
			c0-0.86,0.7-1.56,1.56-1.56h0.46c0.86,0,1.56,0.7,1.56,1.56v0.09c1.73,0.15,3.42,0.5,5.04,1.06l0.03-0.07
			c0.35-0.79,1.28-1.14,2.07-0.79l0.42,0.19c0.38,0.17,0.67,0.48,0.82,0.87c0.15,0.39,0.14,0.82-0.03,1.2l-0.03,0.08
			c1.5,0.83,2.9,1.85,4.16,3.03l0.07-0.06c0.64-0.58,1.63-0.53,2.21,0.12l0.31,0.34c0.58,0.64,0.53,1.63-0.12,2.21l-0.07,0.06
			c1.04,1.38,1.91,2.88,2.58,4.46l0.08-0.03c0.82-0.27,1.7,0.18,1.97,1l0.14,0.44c0.13,0.4,0.1,0.82-0.09,1.19
			c-0.19,0.37-0.51,0.65-0.91,0.78l-0.08,0.03c0.36,1.56,0.54,3.15,0.54,4.73c0,0.13,0,0.26-0.01,0.39l0.09,0.01
			c0.86,0.09,1.48,0.86,1.39,1.72l-0.05,0.46c-0.04,0.42-0.25,0.79-0.57,1.05c-0.32,0.26-0.73,0.38-1.15,0.34l-0.09-0.01
			c-0.33,1.71-0.86,3.35-1.59,4.9l0.07,0.04c0.36,0.21,0.62,0.55,0.73,0.95c0.11,0.4,0.05,0.83-0.16,1.19l-0.23,0.4
			c-0.21,0.36-0.55,0.62-0.95,0.73c-0.4,0.11-0.83,0.05-1.19-0.16l-0.07-0.04c-0.98,1.41-2.14,2.69-3.45,3.83l0.05,0.07
			c0.25,0.34,0.34,0.75,0.28,1.16c-0.07,0.41-0.29,0.78-0.63,1.02l-0.37,0.27c-0.7,0.51-1.68,0.35-2.19-0.35l-0.05-0.07
			c-1.47,0.89-3.06,1.59-4.71,2.1l0.02,0.08c0.09,0.41,0.01,0.83-0.22,1.18c-0.23,0.35-0.58,0.59-0.99,0.68l-0.45,0.1
			c-0.41,0.08-0.83,0.01-1.18-0.22c-0.35-0.23-0.59-0.58-0.68-0.99l-0.02-0.09c-1.75,0.22-3.4,0.22-5.15,0l-0.02,0.09
			c-0.09,0.41-0.33,0.76-0.68,0.99c-0.26,0.17-0.55,0.25-0.85,0.25C235.88,93.36,235.77,93.35,235.66,93.33z M237.36,91.47
			c1.87,0.25,3.63,0.25,5.5,0l0.25-0.03l0.12,0.57c0.06,0.27,0.22,0.5,0.45,0.65c0.23,0.15,0.51,0.2,0.77,0.14l0.45-0.1
			c0.27-0.06,0.5-0.22,0.65-0.45c0.15-0.23,0.2-0.51,0.14-0.77l-0.12-0.57l0.24-0.07c1.77-0.51,3.46-1.27,5.03-2.24l0.21-0.13
			l0.34,0.47c0.33,0.46,0.98,0.56,1.44,0.23l0.37-0.27c0.22-0.16,0.37-0.4,0.41-0.67s-0.02-0.54-0.18-0.77L253.09,87l0.19-0.16
			c1.41-1.19,2.65-2.57,3.68-4.09l0.14-0.21l0.5,0.29c0.24,0.14,0.51,0.17,0.78,0.1c0.27-0.07,0.49-0.24,0.62-0.48l0.23-0.4
			c0.14-0.24,0.17-0.51,0.1-0.78c-0.07-0.27-0.24-0.49-0.48-0.62l-0.5-0.29l0.11-0.22c0.8-1.65,1.37-3.41,1.69-5.23l0.04-0.25
			l0.58,0.06c0.27,0.03,0.54-0.05,0.75-0.22c0.21-0.17,0.35-0.42,0.38-0.69l0.05-0.46c0.06-0.56-0.35-1.07-0.91-1.13l-0.58-0.06
			l0.01-0.4c0.01-0.16,0.01-0.31,0.01-0.47c0-1.63-0.2-3.26-0.59-4.85l-0.06-0.24l0.55-0.18c0.26-0.08,0.47-0.27,0.6-0.51
			c0.12-0.24,0.15-0.52,0.06-0.78l-0.14-0.44c-0.17-0.54-0.75-0.84-1.3-0.66l-0.55,0.18l-0.09-0.23c-0.7-1.7-1.62-3.3-2.76-4.76
			l-0.15-0.2l0.44-0.39c0.42-0.38,0.46-1.03,0.08-1.45l-0.31-0.34c-0.38-0.42-1.03-0.46-1.45-0.08l-0.44,0.39l-0.18-0.17
			c-1.34-1.28-2.84-2.37-4.45-3.24l-0.22-0.12l0.23-0.53c0.11-0.25,0.12-0.53,0.02-0.79c-0.1-0.26-0.29-0.46-0.54-0.57l-0.42-0.19
			c-0.52-0.23-1.13,0-1.36,0.52l-0.23,0.53L247,52.1c-1.72-0.62-3.53-1-5.38-1.14l-0.25-0.02v-0.59c0-0.57-0.46-1.03-1.03-1.03
			h-0.46c-0.57,0-1.03,0.46-1.03,1.03v0.59l-0.25,0.02c-1.85,0.14-3.66,0.52-5.38,1.14l-0.23,0.08l-0.23-0.53
			c-0.23-0.52-0.84-0.75-1.36-0.52l-0.42,0.19c-0.25,0.11-0.44,0.31-0.54,0.57c-0.1,0.26-0.09,0.54,0.02,0.79l0.23,0.53l-0.22,0.12
			c-1.61,0.87-3.11,1.96-4.45,3.24l-0.18,0.17l-0.44-0.39c-0.42-0.38-1.07-0.34-1.45,0.08l-0.31,0.34
			c-0.38,0.42-0.34,1.07,0.08,1.45l0.44,0.39L224,58.8c-1.13,1.46-2.06,3.06-2.76,4.76l-0.09,0.23l-0.55-0.18
			c-0.54-0.17-1.12,0.12-1.3,0.66l-0.14,0.44c-0.08,0.26-0.06,0.54,0.06,0.78c0.12,0.24,0.34,0.43,0.6,0.51l0.55,0.18l-0.06,0.24
			c-0.39,1.59-0.58,3.22-0.58,4.85c0,0.16,0.01,0.32,0.01,0.48l0.01,0.4l-0.58,0.06c-0.56,0.06-0.97,0.57-0.91,1.13l0.05,0.46
			c0.03,0.27,0.16,0.52,0.38,0.69c0.21,0.17,0.48,0.25,0.75,0.22l0.58-0.06l0.04,0.25c0.33,1.83,0.9,3.59,1.69,5.23l0.11,0.22
			l-0.5,0.29c-0.24,0.14-0.41,0.36-0.48,0.62c-0.07,0.27-0.03,0.54,0.1,0.78l0.23,0.4c0.28,0.49,0.91,0.66,1.4,0.38l0.5-0.29
			l0.14,0.21c1.03,1.52,2.27,2.89,3.68,4.09l0.19,0.16l-0.34,0.47c-0.16,0.22-0.23,0.49-0.18,0.77c0.04,0.27,0.19,0.51,0.41,0.67
			l0.37,0.27c0.46,0.33,1.1,0.23,1.44-0.23l0.34-0.47l0.21,0.13c1.56,0.97,3.26,1.72,5.03,2.24l0.24,0.07l-0.12,0.57
			c-0.06,0.27-0.01,0.54,0.14,0.77c0.15,0.23,0.38,0.39,0.65,0.45l0.45,0.1c0.27,0.06,0.54,0.01,0.77-0.14
			c0.23-0.15,0.39-0.38,0.45-0.65l0.12-0.57L237.36,91.47z"/>
	</g>
	<g>
		
			<linearGradient id="XMLID_42_" gradientUnits="userSpaceOnUse" x1="260.0548" y1="84.3671" x2="260.5323" y2="57.0103" gradientTransform="matrix(-1 0 0 1 500.3398 0)">
			<stop  offset="0" style="stop-color:#7A6D67"/>
			<stop  offset="0.0542" style="stop-color:#746862"/>
			<stop  offset="0.3299" style="stop-color:#5D524E"/>
			<stop  offset="0.5878" style="stop-color:#4F4541"/>
			<stop  offset="0.8081" style="stop-color:#4A413D"/>
		</linearGradient>
		<polygon id="XMLID_28_" class="st10" points="246.33,84.26 254.09,74.53 251.32,62.4 240.11,57 228.9,62.4 226.13,74.53 
			233.89,84.26 		"/>
		<path class="st2" d="M225.84,74.6l2.83-12.38l11.44-5.51l11.44,5.51l2.83,12.38l-7.92,9.93h-12.7L225.84,74.6z M253.8,74.47
			l-2.71-11.88l-10.98-5.29l-10.98,5.29l-2.71,11.88l7.6,9.53h12.18L253.8,74.47z"/>
	</g>
	<g>
		
			<linearGradient id="XMLID_43_" gradientUnits="userSpaceOnUse" x1="254.7213" y1="71.5896" x2="265.4942" y2="71.5896" gradientTransform="matrix(-1 0 0 1 500.3398 0)">
			<stop  offset="0" style="stop-color:#736560"/>
			<stop  offset="0.0261" style="stop-color:#6F625D"/>
			<stop  offset="0.2329" style="stop-color:#584D49"/>
			<stop  offset="0.4262" style="stop-color:#4A403C"/>
			<stop  offset="0.5914" style="stop-color:#453C38"/>
		</linearGradient>
		<polygon id="XMLID_27_" class="st11" points="244.55,74.76 245.62,70.09 242.63,66.34 237.83,66.34 234.85,70.09 235.91,74.76 
			240.23,76.84 		"/>
		<path class="st2" d="M235.68,74.95l-1.12-4.93l3.15-3.95h5.05l3.15,3.95l-1.12,4.93l-4.55,2.19L235.68,74.95z M245.33,70.15
			l-2.83-3.55h-4.54l-2.83,3.55l1.01,4.42l4.09,1.97l4.09-1.97L245.33,70.15z"/>
	</g>
	<g>
		<path id="XMLID_26_" class="st12" d="M239.61,55.28h1.41c0.89,0,1.61,0.72,1.61,1.61v9.18h-4.63v-9.18
			C237.99,56,238.72,55.28,239.61,55.28z"/>
		<path class="st2" d="M237.73,66.07v-9.93c0-0.62,0.51-1.13,1.13-1.13h2.91c0.62,0,1.13,0.51,1.13,1.13v9.93
			c0,0.15-0.12,0.27-0.27,0.27h-4.63C237.85,66.34,237.73,66.22,237.73,66.07z M242.36,56.14c0-0.33-0.27-0.6-0.6-0.6h-2.91
			c-0.33,0-0.6,0.27-0.6,0.6v9.66h4.1V56.14z"/>
	</g>
	<g>
		<path id="XMLID_25_" class="st12" d="M252.39,60.83l0.88,1.1c0.55,0.7,0.44,1.71-0.26,2.26l-7.18,5.72l-2.89-3.62l7.18-5.72
			C250.82,60.02,251.83,60.14,252.39,60.83z"/>
		<path class="st2" d="M245.62,70.09l-2.89-3.62c-0.04-0.06-0.06-0.13-0.06-0.2c0.01-0.07,0.04-0.14,0.1-0.18l7.76-6.19
			c0.24-0.19,0.53-0.27,0.83-0.24c0.3,0.03,0.57,0.18,0.76,0.42l1.81,2.27c0.39,0.49,0.31,1.2-0.18,1.59L246,70.13
			c-0.05,0.04-0.11,0.06-0.17,0.06C245.75,70.19,245.68,70.16,245.62,70.09z M250.87,60.32l-7.55,6.02l2.56,3.2l7.55-6.02
			c0.26-0.21,0.3-0.58,0.09-0.84l-1.81-2.27l0,0c-0.1-0.12-0.24-0.2-0.4-0.22c-0.02,0-0.05,0-0.07,0
			C251.11,60.19,250.98,60.23,250.87,60.32z"/>
	</g>
	<g>
		<path id="XMLID_24_" class="st12" d="M256.01,74.28l-0.31,1.38c-0.2,0.87-1.06,1.41-1.93,1.21l-8.95-2.04l1.03-4.52l8.95,2.04
			C255.67,72.55,256.21,73.42,256.01,74.28z"/>
		<path class="st2" d="M254.44,77.3l-9.68-2.21c-0.07-0.02-0.13-0.06-0.17-0.12c-0.04-0.06-0.05-0.13-0.03-0.2l1.03-4.52
			c0.03-0.14,0.18-0.24,0.32-0.2l9.68,2.21c0.61,0.14,0.99,0.75,0.85,1.36l0,0l-0.65,2.83c-0.07,0.29-0.25,0.55-0.5,0.71
			c-0.18,0.11-0.39,0.17-0.6,0.17C254.61,77.33,254.52,77.32,254.44,77.3z M255.92,73.5c0.07-0.32-0.13-0.64-0.45-0.71l-9.42-2.15
			l-0.91,4l9.42,2.15c0.16,0.04,0.31,0.01,0.45-0.08c0.13-0.08,0.23-0.22,0.26-0.37L255.92,73.5L255.92,73.5z"/>
	</g>
	<g>
		<path id="XMLID_23_" class="st12" d="M247.76,85.51l-1.27,0.61c-0.8,0.39-1.77,0.05-2.15-0.75l-3.98-8.27l4.18-2.01l3.98,8.27
			C248.9,84.16,248.56,85.12,247.76,85.51z"/>
		<path class="st2" d="M244.42,86.16l-4.31-8.94c-0.06-0.13-0.01-0.29,0.13-0.36l4.18-2.01c0.06-0.03,0.14-0.04,0.2-0.01
			c0.07,0.02,0.12,0.07,0.15,0.14l4.31,8.94c0.27,0.56,0.03,1.24-0.53,1.51h0l-2.62,1.26c-0.16,0.08-0.33,0.11-0.49,0.11
			C245.02,86.8,244.61,86.56,244.42,86.16z M248.31,84.94c0.3-0.14,0.42-0.5,0.28-0.8l-4.19-8.7l-3.69,1.78l4.19,8.7
			c0.14,0.3,0.5,0.42,0.8,0.28L248.31,84.94L248.31,84.94z"/>
	</g>
	<g>
		<path id="XMLID_22_" class="st12" d="M233.83,86.05l-1.27-0.61c-0.8-0.39-1.14-1.35-0.75-2.15l3.98-8.27l4.18,2.01l-3.98,8.27
			C235.6,86.1,234.64,86.44,233.83,86.05z"/>
		<path class="st2" d="M234.39,86.62l-2.62-1.26c-0.56-0.27-0.8-0.95-0.53-1.51l4.31-8.94c0.03-0.06,0.09-0.11,0.15-0.14
			c0.07-0.02,0.14-0.02,0.2,0.01l4.18,2.01c0.13,0.06,0.19,0.22,0.13,0.36l-4.31,8.94c-0.13,0.27-0.36,0.48-0.65,0.58
			c-0.12,0.04-0.25,0.06-0.37,0.06C234.71,86.73,234.55,86.69,234.39,86.62z M235.92,75.37l-4.19,8.7c-0.14,0.3-0.02,0.65,0.28,0.8
			l2.62,1.26h0c0.14,0.07,0.31,0.08,0.46,0.03c0.15-0.05,0.27-0.16,0.34-0.3l4.19-8.7L235.92,75.37z"/>
	</g>
	<g>
		<path id="XMLID_21_" class="st12" d="M224.73,75.5l-0.31-1.38c-0.2-0.87,0.34-1.73,1.21-1.93l8.95-2.04l1.03,4.52l-8.95,2.04
			C225.79,76.91,224.93,76.37,224.73,75.5z"/>
		<path class="st2" d="M225.14,77c-0.26-0.16-0.43-0.41-0.5-0.71l-0.65-2.83c-0.14-0.61,0.24-1.22,0.85-1.36l9.68-2.21
			c0.07-0.02,0.14,0,0.2,0.03c0.06,0.04,0.1,0.1,0.12,0.17l1.03,4.52c0.02,0.07,0,0.14-0.03,0.2c-0.04,0.06-0.1,0.1-0.17,0.12
			l-9.68,2.21c-0.08,0.02-0.17,0.03-0.25,0.03C225.53,77.17,225.32,77.11,225.14,77z M234.38,70.48l-9.42,2.15
			c-0.32,0.07-0.52,0.39-0.45,0.71l0.65,2.83l0,0c0.04,0.16,0.13,0.29,0.26,0.37c0.13,0.08,0.29,0.11,0.45,0.08l9.42-2.15
			L234.38,70.48z"/>
	</g>
	<g>
		<path id="XMLID_20_" class="st12" d="M227.3,61.81l0.88-1.1c0.55-0.7,1.57-0.81,2.26-0.26l7.18,5.72l-2.89,3.62l-7.18-5.72
			C226.86,63.52,226.74,62.51,227.3,61.81z"/>
		<path class="st2" d="M234.56,70.01l-7.76-6.19c-0.24-0.19-0.39-0.46-0.42-0.76c-0.03-0.3,0.05-0.6,0.24-0.83l1.81-2.27
			c0.39-0.49,1.1-0.57,1.59-0.18l7.76,6.19c0.06,0.04,0.09,0.11,0.1,0.18c0.01,0.07-0.01,0.14-0.06,0.2l-2.89,3.62
			c-0.05,0.07-0.13,0.1-0.21,0.1C234.67,70.07,234.61,70.05,234.56,70.01z M229.69,60.19c-0.26-0.2-0.63-0.16-0.84,0.09l-1.81,2.27
			c0,0,0,0,0,0c-0.1,0.12-0.14,0.28-0.13,0.44c0.02,0.16,0.1,0.3,0.22,0.4l7.55,6.02l2.55-3.2L229.69,60.19z"/>
	</g>
	<g>
		<circle id="XMLID_18_" class="st13" cx="240.11" cy="71.35" r="2.12"/>
		<path class="st2" d="M237.73,71.35c0-1.32,1.07-2.39,2.39-2.39s2.39,1.07,2.39,2.39s-1.07,2.39-2.39,2.39
			S237.73,72.67,237.73,71.35z M238.26,71.35c0,1.02,0.83,1.85,1.85,1.85s1.85-0.83,1.85-1.85s-0.83-1.85-1.85-1.85
			S238.26,70.33,238.26,71.35z"/>
	</g>
</g>
<g id="XMLID_100_">
	<g>
		
			<linearGradient id="XMLID_44_" gradientUnits="userSpaceOnUse" x1="438.7814" y1="49.8454" x2="445.6967" y2="93.5067" gradientTransform="matrix(-1 0 0 1 500.3398 0)">
			<stop  offset="0" style="stop-color:#736560"/>
			<stop  offset="0.0261" style="stop-color:#6F625D"/>
			<stop  offset="0.2329" style="stop-color:#584D49"/>
			<stop  offset="0.4262" style="stop-color:#4A403C"/>
			<stop  offset="0.5914" style="stop-color:#453C38"/>
		</linearGradient>
		<path id="XMLID_17_" class="st14" d="M37.05,72.23l0.34-0.04c-0.01-0.21-0.02-0.42-0.02-0.63c0-1.69,0.21-3.34,0.59-4.91
			l-0.32-0.1c-0.68-0.22-1.05-0.95-0.83-1.63l0.14-0.44c0.22-0.68,0.95-1.05,1.63-0.83l0.31,0.1c0.71-1.74,1.66-3.36,2.79-4.82
			l-0.25-0.23c-0.53-0.48-0.57-1.3-0.1-1.83l0.31-0.34c0.48-0.53,1.3-0.57,1.83-0.1l0.25,0.23c1.34-1.29,2.85-2.39,4.51-3.28
			l-0.13-0.3c-0.29-0.65,0-1.42,0.66-1.71l0.42-0.19c0.65-0.29,1.42,0,1.71,0.66l0.13,0.3c1.72-0.62,3.55-1.01,5.45-1.15v-0.34
			c0-0.72,0.58-1.3,1.3-1.3h0.46c0.72,0,1.3,0.58,1.3,1.3v0.34c1.9,0.14,3.73,0.53,5.45,1.15l0.13-0.3
			c0.29-0.65,1.06-0.95,1.71-0.66l0.42,0.19c0.65,0.29,0.95,1.06,0.66,1.71l-0.13,0.3c1.65,0.89,3.16,2,4.51,3.28l0.25-0.23
			c0.53-0.48,1.35-0.44,1.83,0.1l0.31,0.34c0.48,0.53,0.44,1.35-0.1,1.83l-0.25,0.23c1.14,1.46,2.08,3.08,2.79,4.82l0.31-0.1
			c0.68-0.22,1.41,0.15,1.63,0.83l0.14,0.44c0.22,0.68-0.15,1.41-0.83,1.63l-0.32,0.1c0.38,1.57,0.59,3.22,0.59,4.91
			c0,0.21-0.01,0.42-0.02,0.63l0.34,0.04c0.71,0.07,1.23,0.71,1.15,1.42l-0.05,0.46c-0.07,0.71-0.71,1.23-1.42,1.15l-0.33-0.03
			c-0.34,1.87-0.92,3.65-1.72,5.3l0.28,0.16c0.62,0.36,0.83,1.15,0.47,1.77l-0.23,0.4c-0.36,0.62-1.15,0.83-1.77,0.47l-0.29-0.17
			c-1.05,1.54-2.31,2.93-3.73,4.14l0.2,0.27c0.42,0.58,0.29,1.39-0.29,1.81l-0.37,0.27c-0.58,0.42-1.39,0.29-1.81-0.29l-0.2-0.27
			c-1.57,0.97-3.28,1.74-5.09,2.27l0.07,0.32c0.15,0.7-0.3,1.39-1,1.54l-0.45,0.1c-0.7,0.15-1.39-0.3-1.54-1l-0.07-0.33
			c-0.91,0.12-1.84,0.19-2.79,0.19c-0.95,0-1.87-0.07-2.79-0.19l-0.07,0.33c-0.15,0.7-0.84,1.15-1.54,1l-0.45-0.1
			c-0.7-0.15-1.15-0.84-1-1.54l0.07-0.32c-1.81-0.53-3.52-1.29-5.09-2.27l-0.2,0.27c-0.42,0.58-1.23,0.71-1.81,0.29l-0.37-0.27
			c-0.58-0.42-0.71-1.23-0.29-1.81l0.2-0.27c-1.42-1.2-2.68-2.6-3.73-4.14l-0.29,0.17c-0.62,0.36-1.41,0.15-1.77-0.47l-0.23-0.4
			c-0.36-0.62-0.15-1.41,0.47-1.77l0.28-0.16c-0.8-1.66-1.38-3.44-1.72-5.3l-0.33,0.03c-0.71,0.07-1.35-0.44-1.42-1.15l-0.05-0.46
			C35.82,72.94,36.33,72.3,37.05,72.23z"/>
		<path class="st2" d="M60.61,92.4l-0.02-0.09c-1.75,0.22-3.4,0.22-5.15,0l-0.02,0.09c-0.18,0.84-1.01,1.38-1.86,1.2l-0.45-0.1
			c-0.41-0.09-0.76-0.33-0.99-0.68c-0.23-0.35-0.3-0.77-0.22-1.18l0.02-0.08c-1.65-0.5-3.23-1.21-4.71-2.1l-0.05,0.07
			c-0.51,0.7-1.49,0.85-2.19,0.35l-0.37-0.27c-0.34-0.25-0.56-0.61-0.63-1.02c-0.06-0.41,0.03-0.83,0.28-1.16l0.05-0.07
			c-1.31-1.13-2.47-2.42-3.45-3.83l-0.07,0.04c-0.36,0.21-0.78,0.26-1.19,0.16c-0.4-0.11-0.74-0.37-0.95-0.73l-0.23-0.4
			c-0.43-0.75-0.17-1.71,0.57-2.14l0.07-0.04c-0.73-1.55-1.26-3.2-1.59-4.9l-0.09,0.01c-0.42,0.04-0.82-0.08-1.15-0.34
			c-0.32-0.26-0.53-0.64-0.57-1.05l-0.05-0.46c-0.09-0.86,0.53-1.63,1.39-1.72l0.09-0.01c0-0.13-0.01-0.26-0.01-0.39
			c0-1.59,0.18-3.18,0.54-4.73l-0.08-0.03c-0.82-0.27-1.27-1.15-1-1.97l0.14-0.44c0.13-0.4,0.4-0.72,0.78-0.91
			c0.37-0.19,0.8-0.22,1.19-0.09l0.08,0.03c0.67-1.58,1.54-3.08,2.58-4.46l-0.07-0.06c-0.31-0.28-0.49-0.66-0.52-1.08
			c-0.02-0.42,0.12-0.82,0.4-1.13l0.31-0.34c0.28-0.31,0.66-0.49,1.08-0.52c0.42-0.02,0.82,0.12,1.13,0.4l0.07,0.06
			c1.27-1.19,2.67-2.2,4.16-3.03l-0.03-0.07c-0.35-0.79,0.01-1.71,0.79-2.07l0.42-0.19c0.38-0.17,0.81-0.18,1.2-0.03
			c0.39,0.15,0.7,0.44,0.87,0.82l0.03,0.07c1.62-0.56,3.31-0.92,5.04-1.06v-0.09c0-0.86,0.7-1.56,1.56-1.56h0.46
			c0.86,0,1.56,0.7,1.56,1.56v0.09c1.73,0.15,3.42,0.5,5.04,1.06l0.03-0.07c0.35-0.79,1.28-1.14,2.07-0.79l0.42,0.19
			c0.79,0.35,1.14,1.28,0.79,2.07l-0.03,0.07c1.5,0.83,2.9,1.85,4.16,3.03l0.07-0.06c0.31-0.28,0.7-0.42,1.13-0.4
			c0.42,0.02,0.8,0.2,1.08,0.52l0.31,0.34c0.28,0.31,0.42,0.71,0.4,1.13c-0.02,0.42-0.2,0.8-0.52,1.08l-0.07,0.06
			c1.04,1.38,1.91,2.88,2.58,4.46l0.08-0.03c0.4-0.13,0.82-0.1,1.19,0.09c0.37,0.19,0.65,0.51,0.78,0.91l0.14,0.44
			c0.27,0.82-0.18,1.7-1,1.97l-0.08,0.03c0.36,1.56,0.54,3.15,0.54,4.73c0,0.13,0,0.26-0.01,0.39l0.09,0.01
			c0.86,0.09,1.48,0.86,1.39,1.72l-0.05,0.46c-0.09,0.86-0.86,1.48-1.72,1.39l-0.09-0.01c-0.33,1.7-0.86,3.35-1.59,4.9l0.07,0.04
			c0.75,0.43,1,1.39,0.57,2.14L77.38,83c-0.21,0.36-0.55,0.62-0.95,0.73c-0.4,0.11-0.82,0.05-1.19-0.16l-0.07-0.04
			c-0.98,1.41-2.14,2.69-3.45,3.83l0.05,0.07c0.25,0.34,0.34,0.75,0.28,1.16c-0.07,0.41-0.29,0.78-0.63,1.02l-0.37,0.27
			c-0.7,0.51-1.68,0.35-2.19-0.35l-0.05-0.07c-1.47,0.89-3.06,1.59-4.71,2.1l0.02,0.08c0.09,0.41,0.01,0.83-0.22,1.18
			c-0.23,0.35-0.58,0.59-0.99,0.68l-0.45,0.1c-0.11,0.02-0.22,0.03-0.33,0.03C61.42,93.64,60.77,93.14,60.61,92.4z M69.3,89.23
			c0.16,0.22,0.4,0.37,0.67,0.41c0.27,0.04,0.54-0.02,0.77-0.18l0.37-0.27c0.22-0.16,0.37-0.4,0.41-0.67s-0.02-0.54-0.18-0.76
			l-0.34-0.47l0.19-0.16c1.41-1.2,2.65-2.57,3.68-4.09L75,82.82l0.5,0.29c0.24,0.14,0.51,0.17,0.78,0.1
			c0.27-0.07,0.49-0.24,0.62-0.48l0.23-0.4c0.28-0.49,0.11-1.12-0.38-1.4l-0.5-0.29l0.11-0.22c0.8-1.65,1.37-3.41,1.69-5.24
			l0.04-0.25L78.69,75c0.56,0.06,1.07-0.35,1.13-0.91l0.05-0.46c0.06-0.56-0.35-1.07-0.92-1.13l-0.58-0.06l0.01-0.42
			c0.01-0.15,0.01-0.3,0.01-0.45c0-1.63-0.2-3.26-0.58-4.85l-0.06-0.24l0.55-0.18c0.54-0.18,0.83-0.76,0.66-1.3l-0.14-0.44
			c-0.08-0.26-0.27-0.47-0.51-0.6c-0.24-0.12-0.52-0.15-0.78-0.06l-0.55,0.18l-0.09-0.23c-0.7-1.7-1.62-3.3-2.76-4.76l-0.15-0.2
			l0.44-0.39c0.2-0.18,0.32-0.44,0.34-0.71c0.01-0.27-0.08-0.54-0.26-0.74l-0.31-0.34c-0.18-0.2-0.44-0.32-0.71-0.34
			c-0.27-0.01-0.54,0.08-0.74,0.26l-0.44,0.39l-0.18-0.17c-1.34-1.28-2.84-2.37-4.45-3.24l-0.22-0.12l0.24-0.53
			c0.23-0.52,0-1.13-0.52-1.36l-0.42-0.19c-0.25-0.11-0.53-0.12-0.79-0.02c-0.26,0.1-0.46,0.29-0.57,0.54l-0.24,0.53l-0.23-0.08
			c-1.72-0.62-3.53-1-5.38-1.14l-0.25-0.02v-0.59c0-0.57-0.46-1.03-1.03-1.03h-0.46c-0.57,0-1.03,0.46-1.03,1.03v0.59l-0.25,0.02
			c-1.85,0.14-3.66,0.52-5.38,1.14l-0.23,0.08l-0.24-0.53c-0.23-0.52-0.84-0.75-1.36-0.52l-0.42,0.19
			c-0.52,0.23-0.75,0.84-0.52,1.36l0.24,0.53l-0.22,0.12c-1.61,0.87-3.11,1.96-4.45,3.24l-0.18,0.17l-0.44-0.39
			c-0.2-0.18-0.47-0.28-0.74-0.26c-0.27,0.01-0.53,0.13-0.71,0.34l-0.31,0.34c-0.18,0.2-0.28,0.47-0.26,0.74
			c0.01,0.27,0.13,0.53,0.34,0.71l0.43,0.39l-0.15,0.2c-1.13,1.46-2.06,3.06-2.76,4.76l-0.09,0.23L38.5,63.9
			c-0.26-0.08-0.54-0.06-0.78,0.06c-0.24,0.12-0.43,0.34-0.51,0.6l-0.14,0.44c-0.17,0.54,0.12,1.12,0.66,1.3l0.55,0.18l-0.06,0.24
			c-0.39,1.59-0.58,3.22-0.58,4.85c0,0.16,0.01,0.32,0.01,0.49l0.01,0.39l-0.58,0.06c-0.56,0.06-0.97,0.57-0.92,1.13l0.05,0.46
			c0.03,0.27,0.16,0.52,0.38,0.69c0.21,0.17,0.48,0.25,0.75,0.22l0.58-0.06l0.04,0.25c0.33,1.83,0.9,3.59,1.69,5.24l0.11,0.22
			l-0.5,0.29c-0.49,0.28-0.66,0.91-0.38,1.4l0.23,0.4c0.14,0.24,0.36,0.41,0.62,0.48c0.27,0.07,0.54,0.03,0.78-0.1l0.5-0.29
			l0.14,0.21c1.03,1.52,2.27,2.89,3.68,4.09l0.19,0.16l-0.34,0.47c-0.16,0.22-0.23,0.49-0.18,0.76c0.04,0.27,0.19,0.51,0.41,0.67
			l0.37,0.27c0.46,0.33,1.1,0.23,1.44-0.23l0.34-0.47l0.21,0.13c1.56,0.97,3.25,1.72,5.03,2.24l0.24,0.07l-0.12,0.57
			c-0.06,0.27-0.01,0.54,0.14,0.77c0.15,0.23,0.38,0.39,0.65,0.45l0.45,0.1c0.55,0.12,1.1-0.24,1.22-0.79l0.12-0.57l0.25,0.03
			c1.87,0.25,3.64,0.25,5.5,0l0.25-0.03l0.12,0.57c0.12,0.56,0.67,0.91,1.22,0.79l0.45-0.1c0.27-0.06,0.5-0.22,0.65-0.45
			c0.15-0.23,0.2-0.5,0.14-0.77l-0.12-0.57l0.24-0.07c1.77-0.52,3.46-1.27,5.03-2.24l0.21-0.13L69.3,89.23z"/>
	</g>
	<g>
		
			<linearGradient id="XMLID_45_" gradientUnits="userSpaceOnUse" x1="442.1525" y1="84.6444" x2="442.63" y2="57.2875" gradientTransform="matrix(-1 0 0 1 500.3398 0)">
			<stop  offset="0" style="stop-color:#7A6D67"/>
			<stop  offset="0.0542" style="stop-color:#746862"/>
			<stop  offset="0.3299" style="stop-color:#5D524E"/>
			<stop  offset="0.5878" style="stop-color:#4F4541"/>
			<stop  offset="0.8081" style="stop-color:#4A413D"/>
		</linearGradient>
		<polygon id="XMLID_16_" class="st15" points="64.24,84.54 71.99,74.81 69.23,62.68 58.02,57.28 46.81,62.68 44.04,74.81 
			51.79,84.54 		"/>
		<path class="st2" d="M43.75,74.88l2.83-12.38l11.44-5.51l11.44,5.51l2.83,12.38l-7.84,9.83l-0.08,0.1h-12.7L43.75,74.88z
			 M71.7,74.75l-2.71-11.88l-10.98-5.29l-10.98,5.29l-2.71,11.88l7.6,9.53h12.18L71.7,74.75z"/>
	</g>
	<g>
		
			<linearGradient id="XMLID_46_" gradientUnits="userSpaceOnUse" x1="436.8191" y1="71.8669" x2="447.592" y2="71.8669" gradientTransform="matrix(-1 0 0 1 500.3398 0)">
			<stop  offset="0" style="stop-color:#736560"/>
			<stop  offset="0.0261" style="stop-color:#6F625D"/>
			<stop  offset="0.2329" style="stop-color:#584D49"/>
			<stop  offset="0.4262" style="stop-color:#4A403C"/>
			<stop  offset="0.5914" style="stop-color:#453C38"/>
		</linearGradient>
		<polygon id="XMLID_15_" class="st16" points="62.45,75.04 63.52,70.36 60.53,66.62 55.74,66.62 52.75,70.36 53.81,75.04 
			58.13,77.12 		"/>
		<path class="st2" d="M53.58,75.22l-1.12-4.93l3.15-3.95l5.05,0l3.15,3.95l-1.12,4.93l-4.55,2.19L53.58,75.22z M63.23,70.43
			l-2.83-3.55l-4.54,0l-2.83,3.55l1.01,4.42l4.09,1.97l4.09-1.97L63.23,70.43z"/>
	</g>
	<g>
		<path id="XMLID_14_" class="st12" d="M57.51,55.56h1.41c0.89,0,1.61,0.72,1.61,1.61v9.18H55.9v-9.18
			C55.9,56.28,56.62,55.56,57.51,55.56z"/>
		<path class="st2" d="M55.63,66.35v-9.93c0-0.62,0.51-1.13,1.13-1.13h2.91c0.62,0,1.13,0.51,1.13,1.13v9.93
			c0,0.15-0.12,0.27-0.27,0.27H55.9C55.75,66.62,55.63,66.5,55.63,66.35z M60.26,56.42c0-0.33-0.27-0.6-0.6-0.6h-2.91
			c-0.33,0-0.6,0.27-0.6,0.6v9.66h4.1V56.42z"/>
	</g>
	<g>
		<path id="XMLID_13_" class="st12" d="M70.29,61.11l0.88,1.1c0.55,0.7,0.44,1.71-0.26,2.26l-7.18,5.72l-2.89-3.62l7.18-5.72
			C68.72,60.3,69.73,60.41,70.29,61.11z"/>
		<path class="st2" d="M63.7,70.47c-0.07-0.01-0.14-0.04-0.18-0.1l-2.89-3.62c-0.09-0.12-0.07-0.28,0.04-0.38l7.76-6.19
			c0.24-0.19,0.54-0.27,0.83-0.24c0.3,0.03,0.57,0.18,0.76,0.42l1.81,2.27c0.19,0.24,0.27,0.53,0.24,0.83
			c-0.03,0.3-0.18,0.57-0.42,0.76l-7.76,6.19c-0.05,0.04-0.11,0.06-0.17,0.06C63.72,70.47,63.71,70.47,63.7,70.47z M68.77,60.6
			l-7.55,6.02l2.55,3.2l7.55-6.02c0.12-0.1,0.2-0.24,0.22-0.4c0.02-0.16-0.03-0.31-0.13-0.44l-1.81-2.27l0,0
			c-0.1-0.12-0.24-0.2-0.4-0.22c-0.02,0-0.05,0-0.07,0C69.01,60.47,68.88,60.51,68.77,60.6z"/>
	</g>
	<g>
		<path id="XMLID_12_" class="st12" d="M73.91,74.56l-0.31,1.38c-0.2,0.87-1.06,1.41-1.93,1.21l-8.95-2.04l1.03-4.52l8.95,2.04
			C73.57,72.83,74.11,73.69,73.91,74.56z"/>
		<path class="st2" d="M72.34,77.58l-9.68-2.21c-0.07-0.02-0.13-0.06-0.17-0.12c-0.04-0.06-0.05-0.13-0.03-0.2l1.03-4.52
			c0.03-0.14,0.18-0.24,0.32-0.2l9.68,2.21c0.61,0.14,0.99,0.75,0.85,1.36l-0.65,2.83c-0.07,0.29-0.25,0.55-0.5,0.71
			c-0.18,0.11-0.39,0.17-0.6,0.17C72.51,77.61,72.42,77.6,72.34,77.58z M63.04,74.9l9.42,2.15c0.16,0.03,0.32,0.01,0.45-0.08
			c0.14-0.08,0.23-0.22,0.26-0.37l0.65-2.83l0,0c0.07-0.32-0.13-0.64-0.45-0.71l-9.42-2.15L63.04,74.9z"/>
	</g>
	<g>
		<path id="XMLID_11_" class="st12" d="M65.66,85.78l-1.27,0.61c-0.8,0.39-1.77,0.05-2.15-0.75l-3.98-8.27l4.18-2.01l3.98,8.27
			C66.8,84.43,66.46,85.4,65.66,85.78z"/>
		<path class="st2" d="M62.97,87.01c-0.29-0.1-0.52-0.31-0.65-0.58l-4.31-8.94c-0.03-0.06-0.04-0.14-0.01-0.2s0.07-0.12,0.14-0.15
			l4.18-2.01c0.13-0.06,0.29-0.01,0.36,0.13l4.31,8.94c0.13,0.27,0.15,0.58,0.05,0.87c-0.1,0.29-0.3,0.51-0.58,0.65l-2.62,1.26
			c-0.16,0.07-0.32,0.11-0.49,0.11C63.21,87.07,63.09,87.05,62.97,87.01z M58.61,77.5l4.19,8.7c0.14,0.3,0.5,0.42,0.8,0.28
			l2.62-1.26l0,0c0.14-0.07,0.25-0.19,0.3-0.34c0.05-0.15,0.04-0.31-0.03-0.46l-4.19-8.7L58.61,77.5z"/>
	</g>
	<g>
		<path id="XMLID_10_" class="st12" d="M51.74,86.33l-1.27-0.61c-0.8-0.39-1.14-1.35-0.75-2.15l3.98-8.27l4.18,2.01l-3.98,8.27
			C53.5,86.38,52.54,86.71,51.74,86.33z"/>
		<path class="st2" d="M52.29,86.89l-2.62-1.26c-0.56-0.27-0.8-0.95-0.53-1.51l4.31-8.94c0.06-0.13,0.23-0.19,0.36-0.13l4.18,2.01
			c0.06,0.03,0.11,0.09,0.14,0.15s0.02,0.14-0.01,0.2l-4.31,8.94c-0.13,0.27-0.36,0.48-0.65,0.58c-0.12,0.04-0.25,0.06-0.37,0.06
			C52.62,87.01,52.45,86.97,52.29,86.89z M53.82,75.65l-4.19,8.7c-0.14,0.3-0.02,0.65,0.28,0.8l2.62,1.26l0,0
			c0.14,0.07,0.3,0.08,0.46,0.03c0.15-0.05,0.27-0.16,0.34-0.3l4.19-8.7L53.82,75.65z"/>
	</g>
	<g>
		<path id="XMLID_9_" class="st12" d="M42.63,75.78l-0.31-1.38c-0.2-0.87,0.34-1.73,1.21-1.93l8.95-2.04l1.03,4.52l-8.95,2.04
			C43.69,77.19,42.83,76.65,42.63,75.78z"/>
		<path class="st2" d="M43.04,77.28c-0.26-0.16-0.43-0.41-0.5-0.71l0,0l-0.65-2.83c-0.14-0.61,0.24-1.22,0.85-1.36l9.68-2.21
			c0.15-0.04,0.29,0.06,0.32,0.2l1.03,4.52c0.02,0.07,0,0.14-0.03,0.2c-0.04,0.06-0.1,0.1-0.17,0.12l-9.68,2.21
			c-0.08,0.02-0.17,0.03-0.25,0.03C43.43,77.45,43.22,77.39,43.04,77.28z M52.28,70.75l-9.42,2.15c-0.32,0.07-0.52,0.39-0.45,0.71
			l0.65,2.83c0.04,0.16,0.13,0.29,0.26,0.37c0.13,0.08,0.29,0.11,0.45,0.08l9.42-2.15L52.28,70.75z"/>
	</g>
	<g>
		<path id="XMLID_8_" class="st12" d="M45.2,62.09l0.88-1.1c0.55-0.7,1.57-0.81,2.27-0.26l7.18,5.72l-2.89,3.62l-7.18-5.72
			C44.76,63.8,44.65,62.78,45.2,62.09z"/>
		<path class="st2" d="M52.47,70.29L44.7,64.1c-0.49-0.39-0.57-1.1-0.18-1.59l0,0l1.81-2.27c0.39-0.49,1.1-0.57,1.59-0.18l7.76,6.19
			c0.12,0.09,0.14,0.26,0.04,0.38l-2.89,3.62c-0.04,0.06-0.11,0.09-0.18,0.1c-0.01,0-0.02,0-0.03,0
			C52.57,70.34,52.51,70.32,52.47,70.29z M47.59,60.47c-0.26-0.2-0.63-0.16-0.84,0.09l-1.81,2.27c-0.2,0.26-0.16,0.63,0.09,0.84
			l7.55,6.02l2.55-3.2L47.59,60.47z"/>
	</g>
	<g>
		<circle id="XMLID_7_" class="st13" cx="58.02" cy="71.63" r="2.12"/>
		<path class="st2" d="M55.63,71.63c0-1.32,1.07-2.39,2.39-2.39s2.39,1.07,2.39,2.39s-1.07,2.39-2.39,2.39S55.63,72.95,55.63,71.63z
			 M56.17,71.63c0,1.02,0.83,1.85,1.85,1.85s1.85-0.83,1.85-1.85c0-1.02-0.83-1.85-1.85-1.85S56.17,70.61,56.17,71.63z"/>
	</g>
</g>
<g>
	<polygon id="XMLID_6_" class="st17" points="257.81,40.62 255.31,44.11 227.24,42.86 225.18,38.83 	"/>
	<path class="st2" d="M227.07,43.12l-2.34-4.58l33.58,1.84l-2.87,4L227.07,43.12z M225.64,39.13l1.77,3.47l27.77,1.24l2.13-2.97
		L225.64,39.13z"/>
</g>
<g>
	<polygon id="XMLID_5_" class="st18" points="209.45,63.06 225.18,38.83 227.24,42.86 213.83,63.59 	"/>
	<path class="st2" d="M208.99,63.27l16.22-24.97l2.34,4.57l-13.58,21.01L208.99,63.27z M225.16,39.37l-15.25,23.47l3.78,0.46
		l13.23-20.47L225.16,39.37z"/>
</g>
<g>
	<polygon id="XMLID_4_" class="st17" points="74.46,38.83 71.87,43.03 44.16,41.78 41.57,37.76 	"/>
	<path class="st2" d="M44.01,42.04l-2.94-4.57l33.87,1.1l-2.92,4.73L44.01,42.04z M42.07,38.04l2.24,3.48l27.42,1.24l2.27-3.67
		L42.07,38.04z"/>
</g>
<g>
	<polygon id="XMLID_3_" class="st18" points="26.97,56.96 32.72,57.51 44.16,41.78 41.57,37.76 	"/>
	<path class="st2" d="M26.46,57.18l15.12-19.89l2.9,4.5l-11.64,16L26.46,57.18z M41.55,38.23L27.47,56.74l5.12,0.49l11.24-15.46
		L41.55,38.23z"/>
</g>
<g>
	<polygon id="XMLID_2_" class="st7" points="197.08,16.33 200.45,28.72 211.86,29.45 208.99,20.5 	"/>
	<path class="st2" d="M200.24,28.97l-3.56-13.06l12.52,4.38l3.02,9.45L200.24,28.97z M197.47,16.75l3.19,11.71l10.82,0.7l-2.7-8.45
		L197.47,16.75z"/>
</g>
<rect x="204.8" y="18.59" transform="matrix(0.9756 -0.2197 0.2197 0.9756 -0.2411 45.6429)" class="st2" width="0.54" height="10.63"/>
<g>
	<path id="XMLID_1_" class="st19" d="M270.97,59.8h5.6c0.45,0,0.82-0.37,0.82-0.82l0,0c0-0.45-0.37-0.82-0.82-0.82h-5.6
		c-0.45,0-0.82,0.37-0.82,0.82l0,0C270.15,59.43,270.52,59.8,270.97,59.8z"/>
	<path class="st2" d="M269.88,58.98c0-0.6,0.49-1.09,1.09-1.09h5.6c0.6,0,1.09,0.49,1.09,1.09s-0.49,1.09-1.09,1.09h-5.6
		C270.37,60.07,269.88,59.58,269.88,58.98z M270.97,58.43c-0.3,0-0.55,0.25-0.55,0.55c0,0.3,0.25,0.55,0.55,0.55h5.6
		c0.3,0,0.55-0.25,0.55-0.55c0-0.3-0.25-0.55-0.55-0.55H270.97z"/>
</g>
<path class="st2" d="M85.09,75.58c-0.05-0.05-0.08-0.12-0.08-0.19l0.35-11.53L71.72,43.29l-27.43-1.24L32.93,57.67
	c-0.06,0.08-0.15,0.11-0.24,0.11l-26.11-2.5c-0.12-0.01-0.22-0.1-0.24-0.23l-5-32c-0.01-0.07,0.01-0.14,0.05-0.2
	c0.04-0.06,0.11-0.1,0.18-0.11L164.81,2c0.04-0.01,0.08,0,0.12,0.01l113.89,38.98c0.12,0.04,0.19,0.15,0.18,0.28l-1.43,16.15
	l1.17,0.03c0.15,0,0.26,0.12,0.26,0.27v5.52c0,0.06-0.02,0.11-0.05,0.15l-3.75,5.36c-0.04,0.06-0.1,0.1-0.17,0.11l-10.19,1.79
	c-0.08,0.01-0.16-0.01-0.22-0.06c-0.06-0.05-0.09-0.13-0.09-0.21l0.36-11.54l-9.71-14.48l-27.78-1.24L214.1,63.67v11.72
	c0,0.15-0.12,0.27-0.27,0.27H85.28C85.21,75.66,85.14,75.63,85.09,75.58z M213.56,63.59c0-0.05,0.01-0.1,0.04-0.15l13.41-20.74
	c0.05-0.08,0.13-0.12,0.24-0.12l28.07,1.25c0.09,0,0.16,0.05,0.21,0.12l9.83,14.66c0.03,0.05,0.05,0.1,0.05,0.16l-0.35,11.29
	l9.76-1.71l3.64-5.2v-5.17l-1.19-0.03c-0.07,0-0.14-0.03-0.19-0.09c-0.05-0.06-0.07-0.13-0.07-0.2l1.43-16.23l-9.9-3.39L164.81,2.54
	L1.92,23.24l4.93,31.52l25.75,2.47l11.35-15.61c0.05-0.07,0.14-0.12,0.23-0.11l27.71,1.25c0.09,0,0.16,0.05,0.21,0.12l13.76,20.74
	c0.03,0.05,0.05,0.1,0.04,0.16l-0.35,11.34h128V63.59z"/>
</svg>
